<svg width="400" height="498" viewBox="0 0 400 498" fill="none" xmlns="http://www.w3.org/2000/svg">
<path fill-rule="evenodd" clip-rule="evenodd" d="M200 100C227.614 100 250 77.6143 250 50C250 22.3857 227.614 0 200 0C172.386 0 150 22.3857 150 50C150 77.6143 172.386 100 200 100ZM200 90C222.092 90 240 72.0913 240 50C240 27.9087 222.092 10 200 10C177.908 10 160 27.9087 160 50C160 72.0913 177.908 90 200 90Z" fill="#999999"/>
<path fill-rule="evenodd" clip-rule="evenodd" d="M195 99.7532C196.645 99.9165 198.312 100 200 100C227.614 100 250 77.6143 250 50C250 22.3857 227.614 0 200 0C198.312 0 196.645 0.0834961 195 0.246826C220.267 2.75537 240 24.0732 240 50C240 75.9268 220.267 97.2446 195 99.7532ZM195 89.6904C193.362 89.8948 191.693 90 190 90C167.908 90 150 72.0913 150 50C150 27.9087 167.908 10 190 10C191.693 10 193.362 10.1052 195 10.3096C175.269 12.77 160 29.6021 160 50C160 70.3979 175.269 87.23 195 89.6904Z" fill="#D9D9D9"/>
<path d="M142 90C142 67.9086 159.909 50 182 50H219C241.091 50 259 67.9086 259 90V135H142V90Z" fill="#CCB461"/>
<path d="M142 90C142 67.9086 159.909 50 182 50H219C241.091 50 259 67.9086 259 90V135H142V90Z" fill="#CCB461"/>
<path fill-rule="evenodd" clip-rule="evenodd" d="M201 57H182C165.432 57 152 70.4314 152 87V127.47H201V57Z" fill="#B49F58"/>
<path fill-rule="evenodd" clip-rule="evenodd" d="M278.766 489.893C350.061 459.315 400 388.49 400 306C400 195.543 310.457 106 200 106C89.543 106 0 195.543 0 306C0 396.404 59.9814 472.798 142.319 497.557L142 497.238L175.234 464.004L142 430.77L178.77 394L179.766 394.996V394H231.766V441H278.766V489.893ZM268.395 494H267.766L267.258 494.409C267.637 494.274 268.017 494.138 268.395 494Z" fill="#B50E0E"/>
<path fill-rule="evenodd" clip-rule="evenodd" d="M168.583 133.412C133.833 133.412 101.216 142.543 72.9998 158.536C106.592 130.719 149.708 114 196.73 114C303.939 114 390.85 200.91 390.85 308.119C390.85 380.579 351.149 443.766 292.313 477.115C335.311 441.509 362.702 387.719 362.702 327.531C362.702 220.322 275.792 133.412 168.583 133.412Z" fill="#D24B4B"/>
</svg>
