<svg width="203" height="212" viewBox="0 0 203 212" fill="none" xmlns="http://www.w3.org/2000/svg">
<rect width="203" height="212" fill="#E5E5E5"/>
<rect x="-1199" y="-334" width="1935" height="1290" fill="white"/>
<path d="M48.2347 97.7467C50.0352 97.7467 51.4947 96.2872 51.4947 94.4867C51.4947 92.6863 50.0352 91.2267 48.2347 91.2267C46.4343 91.2267 44.9747 92.6863 44.9747 94.4867C44.9747 96.2872 46.4343 97.7467 48.2347 97.7467Z" fill="#007272"/>
<path d="M24.269 145.302C26.0695 145.302 27.529 143.842 27.529 142.042C27.529 140.241 26.0695 138.782 24.269 138.782C22.4686 138.782 21.009 140.241 21.009 142.042C21.009 143.842 22.4686 145.302 24.269 145.302Z" fill="#65C1BF"/>
<path d="M56.0997 170.23C57.9001 170.23 59.3596 168.771 59.3596 166.97C59.3596 165.17 57.9001 163.71 56.0997 163.71C54.2992 163.71 52.8397 165.17 52.8397 166.97C52.8397 168.771 54.2992 170.23 56.0997 170.23Z" fill="#65C1BF"/>
<path d="M23.4997 203.594C25.3001 203.594 26.7597 202.135 26.7597 200.334C26.7597 198.534 25.3001 197.074 23.4997 197.074C21.6992 197.074 20.2397 198.534 20.2397 200.334C20.2397 202.135 21.6992 203.594 23.4997 203.594Z" fill="#007272"/>
<path d="M128.26 22.52C130.06 22.52 131.52 21.0604 131.52 19.26C131.52 17.4595 130.06 16 128.26 16C126.46 16 125 17.4595 125 19.26C125 21.0604 126.46 22.52 128.26 22.52Z" fill="#007272"/>
<path d="M205.235 42.7468C207.035 42.7468 208.495 41.2872 208.495 39.4868C208.495 37.6864 207.035 36.2268 205.235 36.2268C203.434 36.2268 201.975 37.6864 201.975 39.4868C201.975 41.2872 203.434 42.7468 205.235 42.7468Z" fill="#007272"/>
<path d="M181.269 90.3018C183.069 90.3018 184.529 88.8422 184.529 87.0418C184.529 85.2413 183.069 83.7818 181.269 83.7818C179.469 83.7818 178.009 85.2413 178.009 87.0418C178.009 88.8422 179.469 90.3018 181.269 90.3018Z" fill="#65C1BF"/>
<path d="M180.5 148.594C182.3 148.594 183.76 147.135 183.76 145.334C183.76 143.534 182.3 142.074 180.5 142.074C178.699 142.074 177.24 143.534 177.24 145.334C177.24 147.135 178.699 148.594 180.5 148.594Z" fill="#007272"/>
<path d="M98.8115 9.37759C100.612 9.37759 102.071 7.91805 102.071 6.1176C102.071 4.31716 100.612 2.8576 98.8115 2.8576C97.0111 2.8576 95.5515 4.31716 95.5515 6.1176C95.5515 7.91805 97.0111 9.37759 98.8115 9.37759Z" fill="#65C1BF"/>
<path d="M72.2259 156.47C74.0263 156.47 75.4859 155.01 75.4859 153.21C75.4859 151.409 74.0263 149.95 72.2259 149.95C70.4255 149.95 68.9659 151.409 68.9659 153.21C68.9659 155.01 70.4255 156.47 72.2259 156.47Z" fill="#007272"/>
<path d="M184.26 47.52C186.06 47.52 187.52 46.0604 187.52 44.26C187.52 42.4595 186.06 41 184.26 41C182.46 41 181 42.4595 181 44.26C181 46.0604 182.46 47.52 184.26 47.52Z" fill="#65C1BF"/>
<path d="M159.26 151.567C161.06 151.567 162.52 150.108 162.52 148.307C162.52 146.507 161.06 145.047 159.26 145.047C157.46 145.047 156 146.507 156 148.307C156 150.108 157.46 151.567 159.26 151.567Z" fill="#65C1BF"/>
<path d="M179.277 18.8383C181.078 18.8383 182.537 17.3788 182.537 15.5784C182.537 13.7779 181.078 12.3184 179.277 12.3184C177.477 12.3184 176.017 13.7779 176.017 15.5784C176.017 17.3788 177.477 18.8383 179.277 18.8383Z" fill="#007272"/>
<path d="M157.954 190.93C159.754 190.93 161.214 189.47 161.214 187.67C161.214 185.869 159.754 184.41 157.954 184.41C156.153 184.41 154.694 185.869 154.694 187.67C154.694 189.47 156.153 190.93 157.954 190.93Z" fill="#007272"/>
<path d="M95.2772 208.838C97.0777 208.838 98.5372 207.379 98.5372 205.578C98.5372 203.778 97.0777 202.318 95.2772 202.318C93.4768 202.318 92.0172 203.778 92.0172 205.578C92.0172 207.379 93.4768 208.838 95.2772 208.838Z" fill="#007272"/>
<path d="M42.0997 12.2305C43.9001 12.2305 45.3596 10.7709 45.3596 8.9705C45.3596 7.17006 43.9001 5.71051 42.0997 5.71051C40.2992 5.71051 38.8397 7.17006 38.8397 8.9705C38.8397 10.7709 40.2992 12.2305 42.0997 12.2305Z" fill="#65C1BF"/>
<path d="M9.49966 45.5943C11.3001 45.5943 12.7597 44.1348 12.7597 42.3343C12.7597 40.5339 11.3001 39.0743 9.49966 39.0743C7.69922 39.0743 6.23967 40.5339 6.23967 42.3343C6.23967 44.1348 7.69922 45.5943 9.49966 45.5943Z" fill="#007272"/>
<path d="M151.26 46.52C153.06 46.52 154.52 45.0604 154.52 43.26C154.52 41.4595 153.06 40 151.26 40C149.46 40 148 41.4595 148 43.26C148 45.0604 149.46 46.52 151.26 46.52Z" fill="#007272"/>
<path d="M89.406 178.03C89.406 178.03 84.9359 183.65 82.7859 197.95C80.6259 212.25 78.4959 243.11 79.1059 250.98C79.7159 258.85 80.326 267.37 80.936 269.81C80.936 269.81 91.206 279.85 102.496 269.81C102.496 269.81 103.446 239.69 106.186 225.08C108.926 210.47 112.496 206.97 113.946 210.32C115.396 213.67 125.946 244.86 126.866 267.98C126.866 267.98 140.346 276.5 151.106 267.98C151.106 267.98 150.746 256.21 148.176 241.47C144.946 223 138.446 187.22 130.656 177L89.406 178.03Z" fill="#00454E"/>
<path d="M66.1201 36.6503C66.4601 34.9603 66.9601 35.4703 67.4101 33.5103C67.4101 33.4903 67.4201 33.4803 67.4201 33.4603L67.7801 30.0803C67.8001 28.8403 67.5901 27.7203 67.8701 26.4703C68.1301 25.3303 68.5001 22.9503 66.7201 23.5203C65.3701 23.9503 64.9101 26.3703 64.8201 27.8303C64.7501 28.8703 64.9201 29.1103 64.7701 29.1703C64.2201 29.4203 63.6501 25.8103 62.8001 22.9103C62.6601 22.4103 62.4701 21.9603 62.3401 21.5103C61.7401 19.3503 61.5501 17.6103 60.5501 17.8103C58.9301 18.1403 59.5101 20.2803 59.5701 20.8503C59.5701 20.8503 60.0801 22.7303 60.3401 23.6503L60.7101 26.5703C60.8301 26.9403 60.5601 26.9903 60.4301 26.6303C60.3701 26.4803 59.5201 23.7603 58.9901 21.5003C58.6101 19.8903 58.2901 18.5203 58.2701 18.4303C57.9701 16.5003 55.5901 17.5403 55.8601 19.6303C55.8701 19.7203 56.3101 21.0803 56.6701 22.3103C57.2801 24.3503 57.6601 27.0903 57.7001 27.2803C57.7301 27.4003 57.6101 27.7303 57.4901 27.3703C57.3401 26.9403 55.5001 20.4703 55.4101 20.0003C54.9601 17.6003 52.4401 19.1403 52.9601 21.2903C53.0201 21.5203 53.6201 22.9703 54.0801 24.5603C54.7501 26.8903 55.3401 29.5803 55.3801 29.7003C55.4101 29.8103 55.2601 29.9503 55.0901 29.5703C54.7601 28.8403 54.2701 27.4403 53.8901 26.0803C53.5201 24.7603 53.2601 23.4803 53.1401 23.0503C52.3001 20.0703 50.3401 22.6203 50.9201 24.8303C50.9801 25.0703 52.4901 30.1403 52.5101 30.2703C52.9201 32.1903 53.0901 33.6703 53.6401 34.8103C54.5201 36.6003 56.2901 38.2403 57.6301 39.4903C58.0001 39.8403 58.4701 40.8303 58.9401 41.6503C58.9401 41.6503 60.1301 44.4803 60.1301 47.7803C60.1301 51.0803 67.1201 43.3603 67.1201 43.3603C67.1201 43.3603 65.5701 39.3603 66.1201 36.6503Z" fill="#A5E1D2"/>
<path d="M131.998 189.844C130.562 190.798 130.57 190.084 128.865 191.152C128.851 191.166 128.837 191.166 128.823 191.18L126.178 193.316C125.287 194.178 124.644 195.119 123.562 195.805C122.572 196.427 120.628 197.848 122.289 198.704C123.548 199.354 125.584 197.969 126.68 197C127.465 196.314 127.515 196.024 127.663 196.088C128.229 196.3 126.079 199.255 124.63 201.907C124.375 202.36 124.191 202.812 123.965 203.222C122.862 205.174 121.766 206.539 122.615 207.104C123.993 208.017 125.097 206.093 125.457 205.648C125.457 205.648 126.426 203.958 126.893 203.123L128.696 200.797C128.873 200.45 129.099 200.606 128.936 200.953C128.873 201.101 127.55 203.625 126.327 205.598C125.457 207.005 124.715 208.2 124.665 208.278C123.513 209.855 125.931 210.803 127.218 209.134C127.274 209.063 127.925 207.79 128.54 206.666C129.551 204.792 131.22 202.586 131.326 202.423C131.39 202.317 131.708 202.169 131.538 202.508C131.34 202.918 128.066 208.794 127.798 209.19C126.419 211.206 129.29 211.899 130.442 210.011C130.562 209.805 131.164 208.356 131.963 206.906C133.136 204.785 134.621 202.466 134.678 202.353C134.734 202.254 134.939 202.261 134.791 202.65C134.508 203.399 133.865 204.736 133.172 205.966C132.5 207.161 131.779 208.25 131.559 208.639C130.046 211.34 133.235 210.923 134.388 208.95C134.515 208.738 137.033 204.085 137.11 203.979C138.178 202.331 139.104 201.165 139.522 199.97C140.165 198.082 140.073 195.67 140.009 193.839C139.995 193.33 140.363 192.298 140.61 191.385C140.61 191.385 141.77 188.543 144.104 186.209C146.437 183.876 136.035 184.392 136.035 184.392C136.035 184.392 134.303 188.317 131.998 189.844Z" fill="#A5E1D2"/>
<path d="M105.64 101.42C105.64 101.42 105.57 110.73 100.24 107.36C94.9101 104 98.4801 118.96 98.4801 118.96L126.34 122.53L122.42 108.48C122.42 108.48 116.78 109.06 116.67 101C116.55 92.9503 105.64 101.42 105.64 101.42Z" fill="#A5E1D2"/>
<path d="M117.95 68.2703C115.16 65.8903 112.21 65.5203 108.68 66.2003C98.4201 68.1903 97.1001 81.0103 98.8501 89.6203C99.0701 92.7403 99.7401 95.8203 101.65 98.2203C104.05 101.25 107.88 102.9 111.73 102.44C121.68 101.24 122.98 90.1103 122.93 82.0603C122.91 78.0103 121.2 71.0303 117.95 68.2703Z" fill="#A5E1D2"/>
<path d="M122.18 87.3703C123.34 88.0303 124.12 87.1703 124.57 86.1203C125.42 84.1503 126.52 81.9303 126.31 79.7203C125.93 75.6803 121.75 79.2603 120.84 81.1103C120.5 81.8103 121.54 82.4303 121.89 81.7203C121.89 81.7203 121.5 86.9803 122.18 87.3703Z" fill="#A5E1D2"/>
<path d="M100.715 80.8473C100.015 79.0373 96.4653 76.4773 95.3053 79.1673C94.6253 80.7373 95.2153 82.9173 95.7753 84.4173C96.2453 85.6873 96.7953 87.1173 98.2153 87.5073C98.9653 87.7073 101.005 81.5773 100.715 80.8473Z" fill="#A5E1D2"/>
<path d="M135.49 178.68C135.49 178.68 135.39 183.01 113.47 183.29C91.5501 183.57 86.3601 176.44 86.3601 176.44C86.3601 176.44 86.3601 176.44 86.8401 175.83C87.3201 175.22 93.7001 164.86 88.9001 151.84C84.1001 138.82 83.7401 124.69 80.1101 117.64C76.4801 110.59 65.0201 92.4903 64.2101 86.6403C63.4101 80.7903 59.1201 45.5803 59.1201 45.5803C62.3401 38.5403 67.2301 41.3603 67.2301 41.3603C72.0801 55.2203 75.6101 72.6303 76.8501 77.0803C78.0901 81.5303 79.1701 90.4403 86.6501 94.9703C94.1301 99.5003 100.23 107.36 100.23 107.36C103.81 116.42 109.65 116.03 109.65 116.03C109.65 116.03 122.29 115.59 122.4 108.49C122.4 108.49 132.85 107.71 139.03 112.06C145.2 116.4 145.2 132.31 149.48 145.84C153.76 159.37 145.92 186.16 144.02 189.62C144.02 189.62 136.95 191.08 135.13 185.99C135.13 185.99 137.24 173.93 137.67 154.56C137.67 154.56 134.02 146.54 132.62 133.86C132.62 133.86 133.57 146.79 133.09 156.88C132.61 166.97 133.59 174.74 135.49 178.68Z" fill="#00454E"/>
<mask id="mask0_0_1" style="mask-type:alpha" maskUnits="userSpaceOnUse" x="59" y="40" width="92" height="150">
<path d="M135.49 178.68C135.49 178.68 135.39 183.01 113.47 183.29C91.5501 183.57 86.3601 176.44 86.3601 176.44C86.3601 176.44 86.3601 176.44 86.8401 175.83C87.3201 175.22 93.7001 164.86 88.9001 151.84C84.1001 138.82 83.7401 124.69 80.1101 117.64C76.4801 110.59 65.0201 92.4903 64.2101 86.6403C63.4101 80.7903 59.1201 45.5803 59.1201 45.5803C62.3401 38.5403 67.2301 41.3603 67.2301 41.3603C72.0801 55.2203 75.6101 72.6303 76.8501 77.0803C78.0901 81.5303 79.1701 90.4403 86.6501 94.9703C94.1301 99.5003 100.23 107.36 100.23 107.36C103.81 116.42 109.65 116.03 109.65 116.03C109.65 116.03 122.29 115.59 122.4 108.49C122.4 108.49 132.85 107.71 139.03 112.06C145.2 116.4 145.2 132.31 149.48 145.84C153.76 159.37 145.92 186.16 144.02 189.62C144.02 189.62 136.95 191.08 135.13 185.99C135.13 185.99 137.24 173.93 137.67 154.56C137.67 154.56 134.02 146.54 132.62 133.86C132.62 133.86 133.57 146.79 133.09 156.88C132.61 166.97 133.59 174.74 135.49 178.68Z" fill="#00454E"/>
</mask>
<g mask="url(#mask0_0_1)">
<path opacity="0.81" d="M163.101 198.831L55.0001 208.17" stroke="#007272" stroke-width="1.7417" stroke-linecap="round" stroke-linejoin="round"/>
<path opacity="0.81" d="M163.101 183.831L55.0001 193.17" stroke="#007272" stroke-width="1.7417" stroke-linecap="round" stroke-linejoin="round"/>
<path opacity="0.81" d="M163.151 136.4L55.0505 145.74" stroke="#007272" stroke-width="1.7417" stroke-linecap="round" stroke-linejoin="round"/>
<path opacity="0.81" d="M163.151 121.4L55.0505 130.74" stroke="#007272" stroke-width="1.7417" stroke-linecap="round" stroke-linejoin="round"/>
<path opacity="0.81" d="M163.151 167.4L55.0505 176.74" stroke="#007272" stroke-width="1.7417" stroke-linecap="round" stroke-linejoin="round"/>
<path opacity="0.81" d="M163.151 152.4L55.0505 161.74" stroke="#007272" stroke-width="1.7417" stroke-linecap="round" stroke-linejoin="round"/>
<path opacity="0.81" d="M163.151 104.831L55.0505 114.17" stroke="#007272" stroke-width="1.7417" stroke-linecap="round" stroke-linejoin="round"/>
<path opacity="0.81" d="M163.151 89.8306L55.0505 99.1703" stroke="#007272" stroke-width="1.7417" stroke-linecap="round" stroke-linejoin="round"/>
<path opacity="0.81" d="M163.202 42.3999L55.1008 51.7396" stroke="#007272" stroke-width="1.7417" stroke-linecap="round" stroke-linejoin="round"/>
<path opacity="0.81" d="M163.202 27.3999L55.1008 36.7396" stroke="#007272" stroke-width="1.7417" stroke-linecap="round" stroke-linejoin="round"/>
<path opacity="0.81" d="M163.202 73.3999L55.1008 82.7396" stroke="#007272" stroke-width="1.7417" stroke-linecap="round" stroke-linejoin="round"/>
<path opacity="0.81" d="M163.202 58.3999L55.1008 67.7396" stroke="#007272" stroke-width="1.7417" stroke-linecap="round" stroke-linejoin="round"/>
</g>
<path d="M120.238 72.6102L113.615 43.3868C113.58 43.2385 113.446 43.137 113.283 43.1351C113.119 43.1332 112.965 43.2313 112.899 43.3784L99.7261 73.2353C99.6604 73.3811 99.6969 73.5425 99.8168 73.6366C99.9366 73.7306 100.113 73.7362 100.256 73.6506C103.144 71.9194 111.826 67.6268 119.654 73.0149C119.78 73.0838 119.944 73.0715 120.07 72.9836C120.197 72.8956 120.263 72.7489 120.238 72.6102V72.6102Z" fill="#00696B"/>
<path d="M120.841 76.8499C121.07 77.6248 121.227 80.0002 121.227 80.0002C121.227 80.0002 121.687 78.929 122.671 79.2C122.671 79.2 126.296 73.111 121.572 70.888C119.935 70.1216 118.207 71.2056 116.134 69.8803C114.298 68.7074 112.975 68.0002 109.942 68.0002C106.45 68.0002 106.027 68.8471 104.426 69.0334C102.916 69.1943 101.182 68.2416 98.4332 69.5034C97.5693 69.9014 95.7448 71.5232 98.3366 73.4921C98.6297 73.7106 98.7495 74.0166 98.6568 74.3093C98.252 75.8464 97.9982 76.3799 98.1674 79.2592C98.1674 79.2592 97.962 78.9882 98.9649 78.9798C98.9649 78.9798 100.022 74.8725 100.777 74.4914C100.777 74.4914 108.184 76.3376 114.57 75.3383C116.606 75.0292 120.116 74.411 120.841 76.8499Z" fill="#004A52"/>
<path d="M113 94.4907C111.309 94.9759 109.583 94.5684 108 93.3107" stroke="#00454E" stroke-width="0.870852" stroke-linecap="round" stroke-linejoin="round"/>
</svg>
