<svg width="7186" height="1226" viewBox="0 0 7186 1226" fill="none" xmlns="http://www.w3.org/2000/svg">
<path d="M6157.92 1180.69C5932.59 1188.89 4837.77 1232.17 4264.66 1159.79C3859.32 1109.05 3992.8 1076.96 4177.73 1036.66C4505.9 965.019 3978.12 967.258 3783.39 933.677C3216.41 835.918 3632.76 726.967 4610 753.833C4976.16 763.533 5290.9 679.952 5642.36 678.46C6178.75 675.475 5884.84 853.829 6522.87 871.738C6846.16 880.695 7300.47 910.542 7159.65 1035.17C7022.51 1157.55 6329.36 1174.72 6157.92 1180.69Z" fill="#F4FBF9"/>
<path d="M4383.86 657.421C4158.53 649.21 3063.71 605.929 2490.61 678.314C2085.26 729.06 2218.74 761.149 2403.66 801.445C2731.84 873.085 2204.05 870.846 2009.33 904.427C1442.34 1002.19 1858.71 1111.14 2835.94 1084.27C3202.1 1074.57 3516.84 1158.15 3868.3 1159.64C4404.69 1162.63 4110.78 984.277 4748.81 966.366C5072.1 957.411 5526.41 927.561 5385.59 802.938C5248.45 680.553 4555.3 663.39 4383.86 657.421Z" fill="#EEF2F1"/>
<path d="M2630.92 1202.68C2405.59 1212.07 1310.78 1261.59 737.666 1178.77C332.319 1120.71 465.802 1083.99 650.718 1037.89C978.914 955.917 451.105 958.478 256.392 920.056C-310.603 808.202 105.765 683.542 1083.01 714.28C1449.16 725.38 1763.89 629.749 2115.36 628.042C2651.74 624.625 2357.83 828.695 2995.87 849.187C3319.16 859.434 3773.47 893.587 3632.65 1036.18C3495.51 1176.21 2802.35 1195.85 2630.92 1202.68Z" fill="#F4FBF9"/>
<path opacity="0.1" d="M3870.43 695.275C3881.18 695.275 3889.86 693.996 3889.86 692.416C3889.86 690.839 3881.18 689.56 3870.43 689.56C3859.72 689.56 3851 690.839 3851 692.416C3851 693.996 3859.72 695.275 3870.43 695.275Z" fill="#6E2382"/>
<path d="M3857.39 679.138C3857.39 679.138 3868.48 678.839 3871.81 676.771C3875.16 674.7 3888.86 672.23 3889.68 675.548C3890.52 678.868 3906.34 692.057 3893.82 692.144C3881.31 692.232 3864.76 690.45 3861.43 688.683C3858.08 686.916 3857.39 679.138 3857.39 679.138Z" fill="#757575"/>
<path opacity="0.2" d="M3894.06 690.99C3881.55 691.077 3864.97 689.293 3861.64 687.526C3859.11 686.18 3858.11 681.352 3857.76 679.124C3857.53 679.133 3857.39 679.136 3857.39 679.136C3857.39 679.136 3858.08 686.914 3861.43 688.681C3864.76 690.448 3881.31 692.232 3893.82 692.144C3897.44 692.12 3898.68 690.999 3898.63 689.344C3898.13 690.346 3896.76 690.97 3894.06 690.99Z" fill="#333333"/>
<path opacity="0.1" d="M3695.09 727.986C3720.72 727.986 3741.47 724.93 3741.47 721.163C3741.47 717.396 3720.72 714.34 3695.09 714.34C3669.48 714.34 3648.7 717.396 3648.7 721.163C3648.7 724.93 3669.48 727.986 3695.09 727.986Z" fill="#6E2382"/>
<path d="M3663.94 689.458C3663.94 689.458 3690.39 688.749 3698.36 683.81C3706.36 678.868 3739.07 672.969 3741.05 680.893C3743.03 688.817 3780.83 720.303 3750.95 720.512C3721.06 720.721 3681.54 716.462 3673.57 712.245C3665.63 708.026 3663.94 689.458 3663.94 689.458Z" fill="#757575"/>
<path opacity="0.2" d="M3751.48 717.755C3721.59 717.964 3682.07 713.706 3674.1 709.486C3668.05 706.276 3665.63 694.747 3664.81 689.429C3664.25 689.451 3663.94 689.458 3663.94 689.458C3663.94 689.458 3665.63 708.028 3673.57 712.245C3681.54 716.465 3721.06 720.723 3750.95 720.512C3759.58 720.451 3762.54 717.782 3762.38 713.83C3761.19 716.217 3757.89 717.709 3751.48 717.755Z" fill="#333333"/>
<path d="M3528.93 554.228H3504.48C3498.86 554.228 3494.21 558.263 3493.97 563.432C3493.24 578.738 3491.99 609.021 3492.95 622.036C3494.27 639.821 3491.41 648.714 3494.56 648.714C3508.15 648.714 3539.12 656.295 3540.41 648.131C3541.73 639.964 3540.46 630.704 3540.97 610.365C3541.6 583.375 3539.43 568.102 3537.77 560.501C3536.93 556.644 3533.18 554.228 3528.93 554.228Z" fill="#795548"/>
<path d="M3509.29 428.851C3505.35 426.67 3500.47 427.11 3497.06 429.935C3474.49 448.638 3391.49 517.511 3378.4 530.053C3363.22 544.593 3355.27 559.488 3351.18 564.956C3347.06 570.423 3339.56 582.617 3333.28 590.49C3302.21 629.43 3452.42 604.971 3578.24 601.571C3618.26 600.489 3655.83 599.456 3684.29 605.968C3725.82 615.462 3715.36 585.864 3679.72 553.025C3664.73 539.195 3652.56 525.411 3633.26 509.993C3587.03 473.056 3528.66 439.611 3509.29 428.851Z" fill="#14555A"/>
<path d="M3512.64 221.218C3508.55 214.81 3498.46 214.829 3494.42 221.264C3477.74 247.769 3443.42 302.408 3438.61 310.753C3432.23 321.838 3432.57 318.348 3429.67 323.705C3408.33 362.879 3526.39 339.319 3567.02 330.206C3573.78 328.686 3576.87 321.623 3573.33 316.09L3512.64 221.218Z" fill="#008484"/>
<path d="M3524.47 361.055C3520.45 358.112 3514.78 358.324 3511.03 361.526C3490.38 379.06 3426.95 433.051 3416.54 443.225C3404.11 455.407 3397.17 468.202 3393.71 472.849C3390.25 477.499 3384.13 488.201 3378.56 494.605C3329.64 551.012 3556.75 494.093 3645.06 522.739C3676.11 532.817 3669.9 506.309 3644.74 475.907C3634.13 463.103 3625.68 450.454 3611.9 436.077C3580.43 403.239 3540.36 372.743 3524.47 361.055Z" fill="#007272"/>
<path d="M3495.8 291.745C3499.86 287.231 3507.2 287.12 3511.5 291.465C3534.89 315.118 3601.66 382.688 3610.42 392.321C3621.09 402.207 3620.11 400.113 3625 405.795C3668.13 455.833 3476.87 409.611 3404.72 437.742C3346.29 460.524 3463.96 327.104 3495.8 291.745Z" fill="#008484"/>
<path d="M3469.16 251.201C3476.37 241.763 3490.75 211.494 3503.06 210.518C3515.33 209.542 3561.37 277.051 3549.65 275.611C3539.07 274.309 3537.8 257.711 3509.84 260.64C3481.86 263.569 3474.23 265.847 3464.91 265.847C3455.59 265.847 3466.23 255.02 3469.16 251.201Z" fill="white" stroke="white"/>
<path d="M3609.66 391.358C3603.53 385.336 3591.15 368.463 3591.15 372.83C3591.15 375.146 3594.58 384.526 3595.61 389.621C3596.88 395.99 3591.15 400.622 3575.18 404.096C3559.23 407.57 3538.8 407.57 3524.76 420.307C3510.71 433.046 3532.41 427.835 3538.8 427.835C3545.19 427.835 3568.16 433.624 3591.15 433.624C3614.12 433.624 3609.02 428.992 3619.88 427.835C3636.35 426.075 3631.36 413.939 3628.16 409.307C3625.29 405.112 3617.31 398.885 3609.66 391.358Z" fill="white"/>
<path d="M3650.52 482.078C3643.29 472.453 3630.65 453.336 3629.41 457.592C3628.77 459.848 3615.39 470.761 3612.32 475.367C3605.12 486.159 3593.37 500.417 3564.8 497.235C3536.27 494.051 3470.85 503.494 3444.55 514.142C3439.33 516.255 3436.95 517.762 3436.63 518.807C3435.13 523.809 3481.17 518.223 3490.62 518.223C3505.96 518.223 3552.61 506.941 3592.31 516.398C3632.02 525.853 3625.95 516.087 3644.14 522.304C3674.84 532.797 3667.66 512.959 3664.6 506.564C3660.13 497.235 3658.84 493.154 3650.52 482.078Z" fill="white"/>
<path d="M3338.43 573.13C3345 563.065 3363.77 541.798 3365.28 545.969C3366.09 548.18 3372.96 559.616 3376.36 564.023C3384.39 574.343 3397.22 587.84 3425.71 582.863C3454.19 577.885 3520.64 583.191 3547.83 592.164C3553.24 593.946 3560.26 600.674 3560.66 601.697C3562.51 606.597 3513.33 608.265 3503.82 608.858C3488.4 609.825 3448.54 604.575 3409.26 616.519C3370 628.465 3366.36 613.004 3349.78 617.304C3333.23 621.604 3323.38 605.047 3325.99 598.464C3329.85 588.869 3330.85 584.715 3338.43 573.13Z" fill="white"/>
<path d="M1212.33 811.904C1212.33 811.904 1160.87 214.004 1154.57 177.922C1154.57 177.922 1153.56 169.844 1165.5 168.342C1178.42 166.716 1179.18 171.174 1179.59 175.73C1180.06 180.927 1239.31 811.904 1239.31 811.904C1239.31 811.904 1237.23 815.796 1228.15 815.796C1219.08 815.796 1212.55 814.663 1212.33 811.904Z" fill="#14555A"/>
<path d="M1144.48 203.487L1410.17 174.523L1489.71 203.487L1429.17 251.514L1148.99 270.602L1144.48 203.487Z" fill="#007272"/>
<path d="M1225.93 297.449L958.547 288.903L881.75 318.655L946.29 356.19L1227.26 355.352L1225.93 297.449Z" fill="#007272"/>
<path d="M1144.39 430.79L1408.03 380.104L1489.42 421.605L1432.07 495.541L1153.31 531.721L1144.39 430.79Z" fill="#007272"/>
<path d="M1204.72 211.256L1206.19 235.296L1202.08 235.561L1199.9 211.567L1204.72 211.256ZM1204.87 245.088C1203.99 245.144 1203.22 244.904 1202.55 244.368C1201.88 243.832 1201.52 243.161 1201.46 242.356C1201.39 241.551 1201.65 240.841 1202.24 240.224C1202.82 239.607 1203.55 239.27 1204.42 239.214C1205.3 239.158 1206.07 239.398 1206.74 239.934C1207.41 240.47 1207.77 241.141 1207.83 241.946C1207.88 242.479 1207.77 242.978 1207.5 243.443C1207.25 243.907 1206.9 244.29 1206.43 244.593C1205.98 244.885 1205.46 245.05 1204.87 245.088Z" fill="white"/>
<path d="M1216.18 244.097L1213.65 210.682L1217.83 210.412L1218.77 222.747L1219.12 222.724C1219.39 222.27 1219.78 221.687 1220.27 220.978C1220.77 220.257 1221.52 219.597 1222.51 218.998C1223.5 218.387 1224.89 218.024 1226.66 217.91C1228.95 217.763 1231.02 218.16 1232.84 219.103C1234.67 220.045 1236.15 221.453 1237.28 223.326C1238.4 225.199 1239.07 227.452 1239.27 230.084C1239.47 232.738 1239.15 235.07 1238.32 237.081C1237.49 239.08 1236.25 240.669 1234.59 241.846C1232.93 243.013 1230.97 243.67 1228.7 243.816C1226.95 243.928 1225.53 243.752 1224.44 243.287C1223.35 242.811 1222.49 242.248 1221.87 241.599C1221.25 240.94 1220.77 240.391 1220.43 239.954L1219.93 239.986L1220.23 243.837L1216.18 244.097ZM1219.34 231.302C1219.49 233.194 1219.92 234.844 1220.63 236.252C1221.34 237.649 1222.31 238.718 1223.53 239.46C1224.75 240.19 1226.19 240.501 1227.87 240.393C1229.62 240.281 1231.05 239.763 1232.15 238.839C1233.27 237.903 1234.07 236.693 1234.55 235.209C1235.04 233.712 1235.22 232.072 1235.08 230.288C1234.95 228.526 1234.53 226.957 1233.84 225.581C1233.15 224.194 1232.18 223.124 1230.94 222.374C1229.7 221.611 1228.2 221.287 1226.43 221.401C1224.73 221.511 1223.33 222 1222.23 222.869C1221.13 223.726 1220.34 224.881 1219.86 226.333C1219.37 227.774 1219.2 229.43 1219.34 231.302Z" fill="white"/>
<path d="M1254.67 242.21C1252.94 242.321 1251.35 242.122 1249.9 241.614C1248.45 241.096 1247.27 240.292 1246.35 239.203C1245.44 238.104 1244.92 236.738 1244.8 235.106C1244.69 233.67 1244.91 232.487 1245.45 231.555C1246 230.613 1246.77 229.853 1247.76 229.276C1248.75 228.698 1249.85 228.245 1251.07 227.914C1252.3 227.573 1253.55 227.285 1254.8 227.051C1256.44 226.749 1257.77 226.516 1258.79 226.352C1259.82 226.176 1260.56 225.948 1261.02 225.667C1261.48 225.386 1261.69 224.935 1261.64 224.315L1261.63 224.185C1261.51 222.575 1260.94 221.355 1259.91 220.525C1258.9 219.694 1257.43 219.34 1255.5 219.464C1253.51 219.592 1251.97 220.096 1250.9 220.974C1249.83 221.852 1249.09 222.762 1248.7 223.705L1244.64 222.656C1245.23 221.087 1246.08 219.841 1247.2 218.916C1248.33 217.98 1249.58 217.298 1250.96 216.871C1252.35 216.431 1253.74 216.167 1255.11 216.079C1255.98 216.023 1256.99 216.056 1258.14 216.179C1259.3 216.29 1260.44 216.605 1261.54 217.124C1262.66 217.642 1263.62 218.471 1264.42 219.611C1265.22 220.751 1265.69 222.317 1265.84 224.307L1267.1 240.819L1262.92 241.088L1262.66 237.694L1262.45 237.708C1262.2 238.27 1261.78 238.883 1261.16 239.545C1260.55 240.208 1259.71 240.792 1258.64 241.298C1257.58 241.804 1256.25 242.108 1254.67 242.21ZM1255.04 238.709C1256.7 238.603 1258.07 238.214 1259.16 237.543C1260.26 236.871 1261.06 236.043 1261.57 235.059C1262.09 234.075 1262.31 233.061 1262.23 232.017L1261.96 228.492C1261.8 228.699 1261.42 228.904 1260.83 229.106C1260.25 229.296 1259.58 229.476 1258.81 229.646C1258.05 229.805 1257.3 229.951 1256.58 230.085C1255.86 230.207 1255.28 230.31 1254.84 230.393C1253.76 230.594 1252.76 230.872 1251.84 231.226C1250.93 231.569 1250.2 232.047 1249.67 232.661C1249.14 233.263 1248.92 234.054 1248.99 235.033C1249.1 236.371 1249.71 237.348 1250.84 237.964C1251.97 238.568 1253.38 238.817 1255.04 238.709Z" fill="white"/>
<path d="M1285.83 240.138C1283.28 240.302 1281.04 239.889 1279.11 238.898C1277.19 237.907 1275.65 236.47 1274.51 234.587C1273.37 232.704 1272.71 230.511 1272.52 228.01C1272.32 225.464 1272.66 223.185 1273.53 221.173C1274.41 219.149 1275.72 217.528 1277.47 216.312C1279.23 215.084 1281.34 214.39 1283.79 214.232C1285.71 214.109 1287.46 214.324 1289.04 214.878C1290.63 215.432 1291.95 216.265 1293.02 217.376C1294.1 218.488 1294.81 219.819 1295.16 221.37L1290.98 221.64C1290.57 220.518 1289.79 219.552 1288.62 218.742C1287.47 217.92 1285.97 217.568 1284.13 217.687C1282.5 217.792 1281.1 218.276 1279.93 219.138C1278.77 219.988 1277.9 221.143 1277.32 222.601C1276.76 224.047 1276.54 225.717 1276.69 227.61C1276.84 229.546 1277.29 231.211 1278.07 232.604C1278.85 233.996 1279.88 235.05 1281.15 235.766C1282.44 236.481 1283.92 236.785 1285.57 236.679C1286.66 236.609 1287.63 236.371 1288.49 235.966C1289.35 235.561 1290.06 235.012 1290.62 234.32C1291.19 233.628 1291.57 232.817 1291.76 231.886L1295.94 231.617C1295.82 233.111 1295.33 234.481 1294.49 235.727C1293.66 236.961 1292.51 237.975 1291.03 238.77C1289.57 239.552 1287.84 240.008 1285.83 240.138Z" fill="white"/>
<path d="M1305.81 229.145L1305.38 224.385L1306.23 224.33L1317.29 212.403L1322.47 212.07L1310.68 224.7L1310.32 224.723L1305.81 229.145ZM1302.61 238.533L1300.07 205.118L1304.25 204.848L1306.79 238.263L1302.61 238.533ZM1319.91 237.419L1308.33 225.704L1311.1 222.836L1325.22 237.077L1319.91 237.419Z" fill="white"/>
<path d="M1340.09 236.645C1337.46 236.814 1335.16 236.426 1333.18 235.483C1331.21 234.528 1329.63 233.12 1328.46 231.261C1327.3 229.391 1326.61 227.172 1326.42 224.605C1326.23 222.038 1326.56 219.742 1327.43 217.719C1328.31 215.684 1329.62 214.058 1331.37 212.842C1333.13 211.614 1335.23 210.921 1337.69 210.762C1339.11 210.671 1340.53 210.798 1341.94 211.144C1343.36 211.491 1344.67 212.117 1345.88 213.023C1347.08 213.918 1348.09 215.143 1348.88 216.699C1349.68 218.254 1350.16 220.201 1350.34 222.54L1350.46 224.172L1329.48 225.522L1329.23 222.194L1345.96 221.117C1345.85 219.703 1345.45 218.461 1344.75 217.391C1344.06 216.32 1343.13 215.5 1341.96 214.931C1340.8 214.36 1339.47 214.124 1337.96 214.221C1336.29 214.328 1334.88 214.802 1333.72 215.642C1332.57 216.47 1331.72 217.508 1331.16 218.758C1330.6 220.007 1330.37 221.322 1330.48 222.704L1330.65 224.923C1330.79 226.815 1331.27 228.397 1332.08 229.667C1332.9 230.926 1333.97 231.857 1335.3 232.46C1336.63 233.053 1338.13 233.295 1339.82 233.186C1340.92 233.115 1341.9 232.91 1342.77 232.57C1343.64 232.218 1344.38 231.733 1344.99 231.115C1345.6 230.486 1346.04 229.725 1346.33 228.832L1350.45 229.616C1350.12 230.905 1349.49 232.061 1348.56 233.082C1347.63 234.093 1346.44 234.913 1345.01 235.541C1343.57 236.158 1341.93 236.526 1340.09 236.645Z" fill="white"/>
<path d="M1360.72 219.642L1361.86 234.718L1357.68 234.987L1355.78 209.926L1359.82 209.666L1360.11 213.582L1360.47 213.559C1361.01 212.245 1361.9 211.16 1363.14 210.304C1364.38 209.437 1366.03 208.938 1368.09 208.805C1369.93 208.687 1371.57 208.931 1373 209.538C1374.44 210.134 1375.59 211.11 1376.46 212.463C1377.34 213.806 1377.86 215.544 1378.02 217.676L1379.23 233.6L1375.05 233.869L1373.86 218.206C1373.71 216.237 1373.04 214.739 1371.84 213.712C1370.65 212.674 1369.08 212.217 1367.14 212.342C1365.81 212.428 1364.64 212.771 1363.62 213.372C1362.62 213.972 1361.86 214.803 1361.34 215.864C1360.81 216.925 1360.61 218.185 1360.72 219.642Z" fill="white"/>
<path d="M1397.19 232.968C1394.92 233.114 1392.88 232.716 1391.06 231.773C1389.24 230.818 1387.77 229.405 1386.64 227.532C1385.51 225.648 1384.85 223.379 1384.65 220.725C1384.45 218.092 1384.76 215.777 1385.6 213.777C1386.43 211.778 1387.68 210.195 1389.35 209.027C1391.02 207.859 1393 207.201 1395.29 207.054C1397.06 206.94 1398.48 207.122 1399.55 207.599C1400.63 208.065 1401.47 208.624 1402.07 209.274C1402.67 209.913 1403.15 210.44 1403.49 210.855L1403.84 210.832L1402.9 198.497L1407.09 198.228L1409.63 231.643L1405.58 231.903L1405.29 228.053L1404.8 228.085C1404.52 228.561 1404.13 229.166 1403.62 229.899C1403.1 230.62 1402.34 231.287 1401.33 231.898C1400.32 232.499 1398.94 232.856 1397.19 232.968ZM1397.49 229.473C1399.17 229.365 1400.56 228.871 1401.66 227.992C1402.75 227.101 1403.55 225.919 1404.04 224.444C1404.53 222.959 1404.71 221.27 1404.56 219.377C1404.42 217.506 1404 215.888 1403.3 214.523C1402.61 213.147 1401.65 212.104 1400.43 211.396C1399.21 210.677 1397.75 210.371 1396.05 210.481C1394.28 210.595 1392.83 211.109 1391.72 212.023C1390.61 212.925 1389.82 214.107 1389.33 215.57C1388.86 217.021 1388.69 218.628 1388.83 220.39C1388.96 222.174 1389.38 223.776 1390.08 225.195C1390.79 226.603 1391.77 227.699 1393 228.483C1394.25 229.255 1395.74 229.586 1397.49 229.473Z" fill="white"/>
<path d="M998.395 305.651V334.96H994.664L977.317 311.948H977.006V334.96H973.151V305.651H976.882L994.289 328.721H994.601V305.651H998.395Z" fill="white"/>
<path d="M1015.31 335.418C1013.15 335.418 1011.26 334.946 1009.64 334.002C1008.02 333.057 1006.76 331.736 1005.84 330.037C1004.94 328.339 1004.49 326.355 1004.49 324.084C1004.49 321.794 1004.94 319.795 1005.84 318.087C1006.76 316.38 1008.02 315.054 1009.64 314.109C1011.26 313.164 1013.15 312.692 1015.31 312.692C1017.47 312.692 1019.35 313.164 1020.97 314.109C1022.6 315.054 1023.86 316.38 1024.76 318.087C1025.67 319.795 1026.13 321.794 1026.13 324.084C1026.13 326.355 1025.67 328.339 1024.76 330.037C1023.86 331.736 1022.6 333.057 1020.97 334.002C1019.35 334.946 1017.47 335.418 1015.31 335.418ZM1015.31 332.385C1016.95 332.385 1018.29 331.998 1019.35 331.225C1020.41 330.453 1021.19 329.436 1021.7 328.177C1022.21 326.917 1022.46 325.553 1022.46 324.084C1022.46 322.615 1022.21 321.245 1021.7 319.976C1021.19 318.708 1020.41 317.682 1019.35 316.9C1018.29 316.117 1016.95 315.726 1015.31 315.726C1013.67 315.726 1012.33 316.117 1011.27 316.9C1010.21 317.682 1009.43 318.708 1008.92 319.976C1008.41 321.245 1008.16 322.615 1008.16 324.084C1008.16 325.553 1008.41 326.917 1008.92 328.177C1009.43 329.436 1010.21 330.453 1011.27 331.225C1012.33 331.998 1013.67 332.385 1015.31 332.385Z" fill="white"/>
<path d="M1031.73 334.961V312.978H1035.27V316.298H1035.52C1035.96 315.211 1036.75 314.328 1037.88 313.651C1039.02 312.973 1040.31 312.635 1041.74 312.635C1042.01 312.635 1042.34 312.639 1042.75 312.649C1043.15 312.659 1043.46 312.673 1043.67 312.692V316.127C1043.54 316.098 1043.26 316.055 1042.81 315.998C1042.38 315.931 1041.91 315.898 1041.43 315.898C1040.27 315.898 1039.23 316.122 1038.32 316.57C1037.42 317.009 1036.7 317.62 1036.18 318.402C1035.66 319.175 1035.4 320.058 1035.4 321.05V334.961H1031.73Z" fill="white"/>
<path d="M1059.9 312.978V315.841H1047.52V312.978H1059.9ZM1051.13 307.712H1054.8V328.664C1054.8 329.618 1054.95 330.333 1055.25 330.81C1055.56 331.278 1055.95 331.593 1056.43 331.755C1056.91 331.907 1057.43 331.984 1057.97 331.984C1058.37 331.984 1058.7 331.965 1058.96 331.927C1059.22 331.879 1059.43 331.841 1059.58 331.812L1060.33 334.846C1060.08 334.932 1059.73 335.018 1059.29 335.104C1058.84 335.199 1058.28 335.247 1057.59 335.247C1056.56 335.247 1055.54 335.042 1054.55 334.631C1053.56 334.221 1052.74 333.596 1052.09 332.757C1051.45 331.917 1051.13 330.858 1051.13 329.579V307.712Z" fill="white"/>
<path d="M1069.59 321.737V334.96H1065.93V305.651H1069.59V316.413H1069.91C1070.47 315.278 1071.31 314.376 1072.42 313.708C1073.55 313.031 1075.06 312.692 1076.93 312.692C1078.56 312.692 1079.98 312.993 1081.21 313.594C1082.43 314.185 1083.38 315.096 1084.05 316.327C1084.73 317.548 1085.08 319.104 1085.08 320.993V334.96H1081.41V321.222C1081.41 319.476 1080.91 318.126 1079.93 317.171C1078.96 316.208 1077.6 315.726 1075.88 315.726C1074.67 315.726 1073.59 315.96 1072.64 316.427C1071.7 316.895 1070.95 317.577 1070.4 318.474C1069.86 319.371 1069.59 320.458 1069.59 321.737Z" fill="white"/>
<path d="M1104.6 334.96V305.651H1115.35C1117.85 305.651 1119.89 306.066 1121.48 306.896C1123.07 307.717 1124.26 308.828 1125.02 310.23C1125.79 311.633 1126.17 313.198 1126.17 314.925C1126.17 316.652 1125.79 318.221 1125.02 319.633C1124.27 321.045 1123.09 322.171 1121.51 323.01C1119.92 323.841 1117.89 324.256 1115.41 324.256H1107.71V321.107H1115.29C1117 321.107 1118.37 320.835 1119.41 320.291C1120.45 319.747 1121.2 319.013 1121.66 318.087C1122.14 317.152 1122.38 316.098 1122.38 314.925C1122.38 313.751 1122.14 312.702 1121.66 311.776C1121.2 310.851 1120.44 310.125 1119.4 309.601C1118.35 309.066 1116.96 308.799 1115.23 308.799H1108.45V334.96H1104.6Z" fill="white"/>
<path d="M1141.33 335.418C1139.17 335.418 1137.28 334.946 1135.65 334.002C1134.04 333.057 1132.77 331.736 1131.86 330.037C1130.96 328.339 1130.51 326.355 1130.51 324.084C1130.51 321.794 1130.96 319.795 1131.86 318.087C1132.77 316.38 1134.04 315.054 1135.65 314.109C1137.28 313.164 1139.17 312.692 1141.33 312.692C1143.48 312.692 1145.37 313.164 1146.99 314.109C1148.61 315.054 1149.88 316.38 1150.78 318.087C1151.69 319.795 1152.15 321.794 1152.15 324.084C1152.15 326.355 1151.69 328.339 1150.78 330.037C1149.88 331.736 1148.61 333.057 1146.99 334.002C1145.37 334.946 1143.48 335.418 1141.33 335.418ZM1141.33 332.385C1142.96 332.385 1144.31 331.998 1145.37 331.225C1146.43 330.453 1147.21 329.436 1147.72 328.177C1148.22 326.917 1148.48 325.553 1148.48 324.084C1148.48 322.615 1148.22 321.245 1147.72 319.976C1147.21 318.708 1146.43 317.682 1145.37 316.9C1144.31 316.117 1142.96 315.726 1141.33 315.726C1139.69 315.726 1138.34 316.117 1137.29 316.9C1136.23 317.682 1135.45 318.708 1134.94 319.976C1134.43 321.245 1134.18 322.615 1134.18 324.084C1134.18 325.553 1134.43 326.917 1134.94 328.177C1135.45 329.436 1136.23 330.453 1137.29 331.225C1138.34 331.998 1139.69 332.385 1141.33 332.385Z" fill="white"/>
<path d="M1161.42 305.651V334.96H1157.75V305.651H1161.42Z" fill="white"/>
<path d="M1178.15 335.418C1175.84 335.418 1173.86 334.951 1172.19 334.016C1170.53 333.071 1169.25 331.755 1168.35 330.066C1167.46 328.368 1167.01 326.393 1167.01 324.141C1167.01 321.89 1167.46 319.905 1168.35 318.188C1169.25 316.461 1170.51 315.115 1172.11 314.152C1173.73 313.179 1175.62 312.692 1177.77 312.692C1179.01 312.692 1180.24 312.883 1181.46 313.265C1182.67 313.646 1183.77 314.266 1184.77 315.125C1185.76 315.974 1186.55 317.1 1187.14 318.503C1187.74 319.905 1188.03 321.632 1188.03 323.683V325.114H1169.63V322.195H1184.3C1184.3 320.955 1184.03 319.848 1183.49 318.875C1182.96 317.901 1182.21 317.133 1181.22 316.57C1180.25 316.008 1179.1 315.726 1177.77 315.726C1176.31 315.726 1175.05 316.06 1173.98 316.728C1172.92 317.386 1172.11 318.245 1171.54 319.304C1170.97 320.363 1170.68 321.498 1170.68 322.71V324.656C1170.68 326.316 1170.99 327.724 1171.62 328.878C1172.25 330.023 1173.12 330.896 1174.24 331.497C1175.36 332.089 1176.66 332.385 1178.15 332.385C1179.11 332.385 1179.98 332.26 1180.76 332.012C1181.54 331.755 1182.22 331.373 1182.79 330.867C1183.36 330.352 1183.8 329.713 1184.11 328.95L1187.66 329.866C1187.28 330.972 1186.66 331.946 1185.78 332.785C1184.9 333.615 1183.81 334.264 1182.51 334.732C1181.22 335.189 1179.76 335.418 1178.15 335.418Z" fill="white"/>
<mask id="mask0_8_150" style="mask-type:luminance" maskUnits="userSpaceOnUse" x="1227" y="403" width="146" height="105">
<path d="M1356.98 403.762L1227.17 424.835L1242.91 507.048L1372.72 485.975L1356.98 403.762Z" fill="white"/>
</mask>
<g mask="url(#mask0_8_150)">
<path d="M1360.13 445.559C1359.22 445.087 1358.26 444.703 1357.26 444.414L1356.99 444.338L1357.17 444.132C1358.26 442.805 1359.02 441.271 1359.4 439.643C1359.77 438.014 1359.76 436.33 1359.35 434.708C1358.52 430.428 1356.32 427.492 1352.77 425.985C1349.76 424.68 1345.91 424.429 1340.98 425.239L1326.85 427.558C1326.46 427.626 1326.11 427.832 1325.88 428.134C1325.65 428.438 1325.56 428.807 1325.63 429.172L1333.88 471.831C1333.95 472.193 1334.18 472.516 1334.51 472.728C1334.84 472.939 1335.24 473.022 1335.64 472.956L1351.78 470.307C1356.87 469.473 1360.76 467.803 1363.33 465.351C1364.8 463.953 1365.85 462.228 1366.39 460.344C1366.97 458.224 1367.03 456.013 1366.57 453.866C1366.25 452.124 1365.5 450.471 1364.39 449.032C1363.28 447.593 1361.82 446.407 1360.13 445.559ZM1330.77 431.301L1341.8 429.49C1345.71 428.851 1348.71 428.977 1350.8 429.869C1352.13 430.448 1354.03 431.665 1354.76 435.462C1356.07 442.253 1350.35 443.75 1348.58 444.039L1333.71 446.48L1330.77 431.301ZM1350.97 466.085L1337.92 468.224L1334.53 450.704L1349.4 448.264C1355.85 447.207 1361.03 449.829 1361.95 454.625C1362.4 456.936 1363.76 463.985 1350.97 466.085Z" fill="white"/>
<path d="M1263.38 444.946C1260.86 442.958 1257.83 441.58 1254.58 440.943C1251.62 440.401 1248.58 440.381 1245.61 440.882L1232.2 443.084C1231.8 443.157 1231.45 443.369 1231.22 443.675C1230.99 443.984 1230.9 444.36 1230.98 444.727L1239.23 487.357C1239.3 487.722 1239.52 488.045 1239.85 488.254C1240.18 488.466 1240.59 488.548 1240.98 488.483L1254.4 486.283C1257.38 485.824 1260.23 484.837 1262.79 483.376C1265.61 481.762 1267.94 479.516 1269.55 476.848C1273.26 470.705 1272.66 463.824 1271.97 460.259C1271.39 457.235 1269.38 449.7 1263.38 444.946ZM1265.47 474.75C1264.22 476.714 1262.49 478.389 1260.44 479.655C1258.38 480.921 1256.03 481.743 1253.58 482.059L1243.29 483.748L1236.15 446.822L1246.44 445.136C1248.86 444.645 1251.36 444.669 1253.77 445.201C1256.18 445.734 1258.42 446.764 1260.34 448.213C1265.32 452.165 1266.97 459.019 1267.35 461.015C1267.94 464.012 1268.48 469.782 1265.47 474.75Z" fill="white"/>
<path d="M1310.75 411.268L1322.87 473.931C1322.93 474.203 1322.89 474.485 1322.76 474.735C1322.63 474.983 1322.42 475.187 1322.15 475.316C1322.02 475.394 1321.88 475.448 1321.73 475.472C1321.51 475.508 1321.28 475.496 1321.06 475.435C1320.84 475.372 1320.64 475.263 1320.48 475.117L1283.25 444.513L1293.75 498.786L1289.14 499.544L1276.98 436.738C1276.93 436.463 1276.97 436.179 1277.11 435.929C1277.25 435.678 1277.47 435.474 1277.74 435.35C1277.86 435.277 1278.01 435.233 1278.16 435.221C1278.38 435.182 1278.61 435.192 1278.82 435.248C1279.04 435.304 1279.24 435.406 1279.41 435.545L1316.64 466.18L1306.16 412.019L1310.75 411.268Z" fill="white"/>
</g>
<path d="M1870.28 0L1881.19 29.814L1915.68 30.0501L1887.93 48.7123L1898.34 78.6723L1870.28 60.3921L1842.22 78.6723L1852.63 48.7123L1824.88 30.0501L1859.37 29.814L1870.28 0Z" fill="#FFD700"/>
<path d="M1870.28 4.69749C1867.16 13.2198 1864.05 21.7425 1860.93 30.2648C1860.9 30.3681 1860.83 30.4614 1860.77 30.5525L1870.47 40.1869V5.21516C1870.4 5.04263 1870.34 4.87002 1870.28 4.69749Z" fill="url(#paint0_linear_8_150)"/>
<path d="M1859.1 31.3002C1849.39 31.3732 1839.67 31.4573 1829.96 31.5302L1869.39 41.5674L1859.1 31.3002Z" fill="url(#paint1_linear_8_150)"/>
<path d="M1795.49 578.939L1771.24 696.614C1829.87 717.073 1892.07 718.231 1958.46 696.614L1944.06 578.939C1896.49 556.081 1847.37 551.391 1795.49 578.939Z" fill="#8F5902"/>
<path d="M1868.99 59.6606C1820.52 130.658 1773.12 204.002 1709.28 241.447C1722.89 261.46 1755.82 254.696 1788.45 248.346C1733.86 340.69 1680.3 385.243 1626.91 422.017C1664.99 447.034 1706.29 445.848 1748.18 439.871C1704.77 508.996 1640.8 562.5 1572 612.325C1649.48 664.945 1827.28 617.96 1869.38 560.991C1908.74 617.507 2092 665.034 2170.55 612.325C2097.92 566.91 2035.01 511.101 1986.13 440.277C2030.22 445.068 2074.22 448.992 2114.72 422.017C2047.07 385.921 1991.88 325.115 1944.95 247.94C1976.77 256.245 2006.72 259.926 2027.78 241.447C1955.74 199.331 1915.59 126.372 1868.99 59.6606Z" fill="#4E9A06"/>
<path d="M1795.7 578.401L1771.45 696.075C1830.08 716.534 1892.28 717.692 1958.67 696.075L1944.27 578.401C1896.7 555.542 1847.58 550.852 1795.7 578.401Z" fill="url(#paint2_linear_8_150)"/>
<path d="M1869.58 61.0165C1823.58 127.536 1783.66 198.826 1709.74 243.501C1733.13 266.438 1761.55 251.413 1788.04 250.961C1818.18 242.182 1845.7 224.705 1868.94 193.002C1886.05 221.085 1912.87 239.705 1947.24 250.961C1974.85 259.871 2002.47 261.423 2030.08 242.927C1954.31 202.034 1918.47 125.742 1869.58 61.0165Z" fill="url(#paint3_linear_8_150)"/>
<path d="M1788.15 247.43C1746.48 320.066 1692.2 379.85 1626.36 421.881C1679.45 453.761 1709.54 444.195 1746.73 440.244C1799.39 429.878 1832.9 393.272 1867.1 357.61C1899.77 389.627 1927.17 424.858 1986.18 440.818C2032.28 447.914 2076.15 446.744 2113.67 421.881C2043.37 382.118 1987.23 324.417 1945.41 248.578C1916.79 239.354 1889.69 224.6 1867.1 193.488C1840.57 224.011 1814.68 238.285 1788.15 247.43Z" fill="url(#paint4_linear_8_150)"/>
<path d="M1746.08 439.671C1720.79 488.045 1667.97 544.154 1572 612.4C1648.32 657.8 1797.92 631.244 1868.4 562.475C1912.15 614.809 2075.64 665.607 2169.97 612.4C2092.95 569.905 2019.44 494.362 1985.53 440.818C1939.32 427.159 1905.64 396.283 1868.4 357.61C1831.12 392.323 1796.53 431.578 1746.08 439.671Z" fill="url(#paint5_linear_8_150)"/>
<path d="M1914.12 407.653C1914.12 409.548 1913.7 411.425 1912.89 413.176C1912.07 414.928 1910.87 416.519 1909.36 417.86C1907.85 419.2 1906.06 420.264 1904.08 420.989C1902.11 421.715 1899.99 422.088 1897.85 422.088C1895.71 422.088 1893.6 421.715 1891.62 420.989C1889.65 420.264 1887.85 419.2 1886.34 417.86C1884.83 416.519 1883.63 414.928 1882.82 413.176C1882 411.425 1881.58 409.548 1881.58 407.653C1881.58 405.758 1882 403.881 1882.82 402.129C1883.63 400.378 1884.83 398.787 1886.34 397.446C1887.85 396.105 1889.65 395.042 1891.62 394.316C1893.6 393.591 1895.71 393.217 1897.85 393.217C1899.99 393.217 1902.11 393.591 1904.08 394.316C1906.06 395.042 1907.85 396.105 1909.36 397.446C1910.87 398.787 1912.07 400.378 1912.89 402.129C1913.7 403.881 1914.12 405.758 1914.12 407.653Z" fill="#CC0000" stroke="#A40000" stroke-width="1.11495"/>
<path d="M1763.93 333.077C1763.93 334.972 1763.51 336.849 1762.69 338.601C1761.88 340.352 1760.68 341.943 1759.17 343.284C1757.66 344.625 1755.86 345.688 1753.89 346.414C1751.91 347.139 1749.8 347.513 1747.66 347.513C1745.52 347.513 1743.41 347.139 1741.43 346.414C1739.46 345.688 1737.66 344.625 1736.15 343.284C1734.64 341.943 1733.44 340.352 1732.62 338.601C1731.81 336.849 1731.39 334.972 1731.39 333.077C1731.39 331.182 1731.81 329.305 1732.62 327.554C1733.44 325.802 1734.64 324.211 1736.15 322.87C1737.66 321.53 1739.46 320.466 1741.43 319.741C1743.41 319.015 1745.52 318.642 1747.66 318.642C1749.8 318.642 1751.91 319.015 1753.89 319.741C1755.86 320.466 1757.66 321.53 1759.17 322.87C1760.68 324.211 1761.88 325.802 1762.69 327.554C1763.51 329.305 1763.93 331.182 1763.93 333.077Z" fill="#E3F607" stroke="#D4F412" stroke-width="1.11495"/>
<path d="M1932.51 571.72C1932.51 573.615 1932.09 575.492 1931.28 577.243C1930.46 578.994 1929.26 580.586 1927.75 581.926C1926.24 583.267 1924.45 584.33 1922.47 585.056C1920.5 585.781 1918.38 586.155 1916.24 586.155C1914.11 586.155 1911.99 585.781 1910.01 585.056C1908.04 584.33 1906.25 583.267 1904.74 581.926C1903.22 580.586 1902.03 578.994 1901.21 577.243C1900.39 575.492 1899.97 573.615 1899.97 571.72C1899.97 569.824 1900.39 567.947 1901.21 566.196C1902.03 564.445 1903.22 562.853 1904.74 561.513C1906.25 560.172 1908.04 559.109 1910.01 558.383C1911.99 557.658 1914.11 557.284 1916.24 557.284C1918.38 557.284 1920.5 557.658 1922.47 558.383C1924.45 559.109 1926.24 560.172 1927.75 561.513C1929.26 562.853 1930.46 564.445 1931.28 566.196C1932.09 567.947 1932.51 569.824 1932.51 571.72Z" fill="#E3F607" stroke="#D4F412" stroke-width="1.11495"/>
<path d="M1658.18 621.889C1658.18 623.784 1657.76 625.661 1656.95 627.412C1656.13 629.164 1654.93 630.755 1653.42 632.096C1651.91 633.436 1650.11 634.5 1648.14 635.225C1646.16 635.951 1644.05 636.324 1641.91 636.324C1639.77 636.324 1637.66 635.951 1635.68 635.225C1633.71 634.5 1631.91 633.436 1630.4 632.096C1628.89 630.755 1627.69 629.164 1626.88 627.412C1626.06 625.661 1625.64 623.784 1625.64 621.889C1625.64 619.993 1626.06 618.116 1626.88 616.365C1627.69 614.614 1628.89 613.022 1630.4 611.682C1631.91 610.341 1633.71 609.278 1635.68 608.552C1637.66 607.827 1639.77 607.453 1641.91 607.453C1644.05 607.453 1646.16 607.827 1648.14 608.552C1650.11 609.278 1651.91 610.341 1653.42 611.682C1654.93 613.022 1656.13 614.614 1656.95 616.365C1657.76 618.116 1658.18 619.993 1658.18 621.889Z" fill="#E3F607" stroke="#D4F412" stroke-width="1.11495"/>
<path d="M1763.93 535.11C1763.93 537.005 1763.51 538.882 1762.69 540.633C1761.88 542.385 1760.68 543.976 1759.17 545.316C1757.66 546.657 1755.86 547.72 1753.89 548.446C1751.91 549.172 1749.8 549.545 1747.66 549.545C1745.52 549.545 1743.41 549.172 1741.43 548.446C1739.46 547.72 1737.66 546.657 1736.15 545.316C1734.64 543.976 1733.44 542.385 1732.62 540.633C1731.81 538.882 1731.39 537.005 1731.39 535.11C1731.39 533.214 1731.81 531.337 1732.62 529.586C1733.44 527.835 1734.64 526.243 1736.15 524.903C1737.66 523.562 1739.46 522.499 1741.43 521.773C1743.41 521.048 1745.52 520.674 1747.66 520.674C1749.8 520.674 1751.91 521.048 1753.89 521.773C1755.86 522.499 1757.66 523.562 1759.17 524.903C1760.68 526.243 1761.88 527.835 1762.69 529.586C1763.51 531.337 1763.93 533.214 1763.93 535.11Z" fill="#E3F607" stroke="#D4F412" stroke-width="1.11495"/>
<path d="M1996.88 411.721C1996.88 413.616 1996.46 415.493 1995.65 417.244C1994.83 418.996 1993.63 420.587 1992.12 421.928C1990.61 423.268 1988.81 424.332 1986.84 425.057C1984.87 425.783 1982.75 426.156 1980.61 426.156C1978.47 426.156 1976.36 425.783 1974.38 425.057C1972.41 424.332 1970.61 423.268 1969.1 421.928C1967.59 420.587 1966.39 418.996 1965.58 417.244C1964.76 415.493 1964.34 413.616 1964.34 411.721C1964.34 409.825 1964.76 407.948 1965.58 406.197C1966.39 404.446 1967.59 402.854 1969.1 401.514C1970.61 400.173 1972.41 399.11 1974.38 398.384C1976.36 397.659 1978.47 397.285 1980.61 397.285C1982.75 397.285 1984.87 397.659 1986.84 398.384C1988.81 399.11 1990.61 400.173 1992.12 401.514C1993.63 402.854 1994.83 404.446 1995.65 406.197C1996.46 407.948 1996.88 409.825 1996.88 411.721Z" fill="#E3F607" stroke="#D4F412" stroke-width="1.11495"/>
<path d="M1880.41 240.874C1880.41 242.77 1879.99 244.647 1879.17 246.398C1878.35 248.149 1877.15 249.741 1875.64 251.081C1874.13 252.422 1872.34 253.485 1870.36 254.211C1868.39 254.936 1866.27 255.31 1864.14 255.31C1862 255.31 1859.88 254.936 1857.91 254.211C1855.93 253.485 1854.14 252.422 1852.63 251.081C1851.12 249.741 1849.92 248.149 1849.1 246.398C1848.28 244.647 1847.86 242.77 1847.86 240.874C1847.86 238.979 1848.28 237.102 1849.1 235.351C1849.92 233.6 1851.12 232.008 1852.63 230.668C1854.14 229.327 1855.93 228.264 1857.91 227.538C1859.88 226.812 1862 226.439 1864.14 226.439C1866.27 226.439 1868.39 226.812 1870.36 227.538C1872.34 228.264 1874.13 229.327 1875.64 230.668C1877.15 232.008 1878.35 233.6 1879.17 235.351C1879.99 237.102 1880.41 238.979 1880.41 240.874Z" fill="#E3F607" stroke="#D4F412" stroke-width="1.11495"/>
<path d="M1694.96 411.721C1694.96 413.616 1694.54 415.493 1693.73 417.244C1692.91 418.996 1691.71 420.587 1690.2 421.928C1688.69 423.268 1686.9 424.332 1684.92 425.057C1682.95 425.783 1680.83 426.156 1678.69 426.156C1676.56 426.156 1674.44 425.783 1672.46 425.057C1670.49 424.332 1668.7 423.268 1667.18 421.928C1665.67 420.587 1664.48 418.996 1663.66 417.244C1662.84 415.493 1662.42 413.616 1662.42 411.721C1662.42 409.825 1662.84 407.948 1663.66 406.197C1664.48 404.446 1665.67 402.854 1667.18 401.514C1668.7 400.173 1670.49 399.11 1672.46 398.384C1674.44 397.659 1676.56 397.285 1678.69 397.285C1680.83 397.285 1682.95 397.659 1684.92 398.384C1686.9 399.11 1688.69 400.173 1690.2 401.514C1691.71 402.854 1692.91 404.446 1693.73 406.197C1694.54 407.948 1694.96 409.825 1694.96 411.721Z" fill="#E3F607" stroke="#D4F412" stroke-width="1.11495"/>
<path d="M2145.54 608.329C2145.54 610.225 2145.12 612.102 2144.31 613.853C2143.49 615.604 2142.29 617.196 2140.78 618.536C2139.27 619.877 2137.48 620.94 2135.5 621.666C2133.53 622.391 2131.41 622.765 2129.27 622.765C2127.13 622.765 2125.02 622.391 2123.04 621.666C2121.07 620.94 2119.27 619.877 2117.76 618.536C2116.25 617.196 2115.05 615.604 2114.24 613.853C2113.42 612.102 2113 610.225 2113 608.329C2113 606.434 2113.42 604.557 2114.24 602.806C2115.05 601.055 2116.25 599.463 2117.76 598.123C2119.27 596.782 2121.07 595.719 2123.04 594.993C2125.02 594.267 2127.13 593.894 2129.27 593.894C2131.41 593.894 2133.53 594.267 2135.5 594.993C2137.48 595.719 2139.27 596.782 2140.78 598.123C2142.29 599.463 2143.49 601.055 2144.31 602.806C2145.12 604.557 2145.54 606.434 2145.54 608.329Z" fill="#E3F607" stroke="#D4F412" stroke-width="1.11495"/>
<path d="M1918.72 284.264C1918.72 286.159 1918.3 288.036 1917.48 289.788C1916.67 291.539 1915.47 293.13 1913.96 294.471C1912.45 295.811 1910.65 296.875 1908.68 297.6C1906.7 298.326 1904.59 298.699 1902.45 298.699C1900.31 298.699 1898.2 298.326 1896.22 297.6C1894.25 296.875 1892.45 295.811 1890.94 294.471C1889.43 293.13 1888.23 291.539 1887.42 289.788C1886.6 288.036 1886.18 286.159 1886.18 284.264C1886.18 282.369 1886.6 280.492 1887.42 278.74C1888.23 276.989 1889.43 275.398 1890.94 274.057C1892.45 272.717 1894.25 271.653 1896.22 270.928C1898.2 270.202 1900.31 269.829 1902.45 269.829C1904.59 269.829 1906.7 270.202 1908.68 270.928C1910.65 271.653 1912.45 272.717 1913.96 274.057C1915.47 275.398 1916.67 276.989 1917.48 278.74C1918.3 280.492 1918.72 282.369 1918.72 284.264Z" fill="#1000CC" stroke="#0D00A4" stroke-width="1.11495"/>
<path d="M1809.91 444.263C1809.91 446.158 1809.49 448.035 1808.67 449.786C1807.85 451.538 1806.66 453.129 1805.14 454.47C1803.63 455.81 1801.84 456.874 1799.87 457.599C1797.89 458.325 1795.77 458.698 1793.64 458.698C1791.5 458.698 1789.38 458.325 1787.41 457.599C1785.43 456.874 1783.64 455.81 1782.13 454.47C1780.62 453.129 1779.42 451.538 1778.6 449.786C1777.78 448.035 1777.36 446.158 1777.37 444.263C1777.36 442.367 1777.78 440.491 1778.6 438.739C1779.42 436.988 1780.62 435.396 1782.13 434.056C1783.64 432.715 1785.43 431.652 1787.41 430.926C1789.38 430.201 1791.5 429.827 1793.64 429.827C1795.77 429.827 1797.89 430.201 1799.87 430.926C1801.84 431.652 1803.63 432.715 1805.14 434.056C1806.66 435.396 1807.85 436.988 1808.67 438.739C1809.49 440.491 1809.91 442.367 1809.91 444.263Z" fill="#1000CC" stroke="#0D00A4" stroke-width="1.11495"/>
<path d="M2009.14 601.55C2009.14 603.445 2008.72 605.322 2007.91 607.073C2007.09 608.825 2005.89 610.416 2004.38 611.757C2002.87 613.097 2001.08 614.161 1999.1 614.886C1997.13 615.612 1995.01 615.985 1992.87 615.985C1990.73 615.985 1988.62 615.612 1986.64 614.886C1984.67 614.161 1982.88 613.097 1981.36 611.757C1979.85 610.416 1978.65 608.825 1977.84 607.073C1977.02 605.322 1976.6 603.445 1976.6 601.55C1976.6 599.654 1977.02 597.778 1977.84 596.026C1978.65 594.275 1979.85 592.683 1981.36 591.343C1982.88 590.002 1984.67 588.939 1986.64 588.213C1988.62 587.488 1990.73 587.114 1992.87 587.114C1995.01 587.114 1997.13 587.488 1999.1 588.213C2001.08 588.939 2002.87 590.002 2004.38 591.343C2005.89 592.683 2007.09 594.275 2007.91 596.026C2008.72 597.778 2009.14 599.654 2009.14 601.55Z" fill="#1000CC" stroke="#0D00A4" stroke-width="1.11495"/>
<path d="M1886.54 472.737C1886.54 474.632 1886.12 476.509 1885.3 478.261C1884.48 480.012 1883.28 481.604 1881.77 482.944C1880.26 484.285 1878.47 485.348 1876.49 486.074C1874.52 486.799 1872.4 487.173 1870.27 487.173C1868.13 487.173 1866.01 486.799 1864.04 486.074C1862.06 485.348 1860.27 484.285 1858.76 482.944C1857.25 481.604 1856.05 480.012 1855.23 478.261C1854.41 476.509 1853.99 474.632 1854 472.737C1853.99 470.842 1854.41 468.965 1855.23 467.214C1856.05 465.462 1857.25 463.871 1858.76 462.53C1860.27 461.19 1862.06 460.126 1864.04 459.401C1866.01 458.675 1868.13 458.302 1870.27 458.302C1872.4 458.302 1874.52 458.675 1876.49 459.401C1878.47 460.126 1880.26 461.19 1881.77 462.53C1883.28 463.871 1884.48 465.462 1885.3 467.214C1886.12 468.965 1886.54 470.842 1886.54 472.737Z" fill="#1000CC" stroke="#0D00A4" stroke-width="1.11495"/>
<path d="M2082.71 586.635C2082.71 588.53 2082.29 590.407 2081.47 592.158C2080.65 593.91 2079.46 595.501 2077.94 596.842C2076.43 598.182 2074.64 599.246 2072.66 599.971C2070.69 600.697 2068.57 601.07 2066.44 601.07C2064.3 601.07 2062.18 600.697 2060.21 599.971C2058.23 599.246 2056.44 598.182 2054.93 596.842C2053.42 595.501 2052.22 593.91 2051.4 592.158C2050.58 590.407 2050.16 588.53 2050.17 586.635C2050.16 584.739 2050.58 582.862 2051.4 581.111C2052.22 579.36 2053.42 577.768 2054.93 576.428C2056.44 575.087 2058.23 574.024 2060.21 573.298C2062.18 572.573 2064.3 572.199 2066.44 572.199C2068.57 572.199 2070.69 572.573 2072.66 573.298C2074.64 574.024 2076.43 575.087 2077.94 576.428C2079.46 577.768 2080.65 579.36 2081.47 581.111C2082.29 582.862 2082.71 584.739 2082.71 586.635Z" fill="#1000CC" stroke="#0D00A4" stroke-width="1.11495"/>
<path d="M1898.8 118.841C1898.8 120.737 1898.38 122.614 1897.56 124.365C1896.74 126.116 1895.55 127.708 1894.03 129.048C1892.52 130.389 1890.73 131.452 1888.75 132.178C1886.78 132.903 1884.66 133.277 1882.53 133.277C1880.39 133.277 1878.27 132.903 1876.3 132.178C1874.32 131.452 1872.53 130.389 1871.02 129.048C1869.51 127.708 1868.31 126.116 1867.49 124.365C1866.67 122.614 1866.25 120.737 1866.26 118.841C1866.25 116.946 1866.67 115.069 1867.49 113.318C1868.31 111.566 1869.51 109.975 1871.02 108.635C1872.53 107.294 1874.32 106.231 1876.3 105.505C1878.27 104.779 1880.39 104.406 1882.53 104.406C1884.66 104.406 1886.78 104.779 1888.75 105.505C1890.73 106.231 1892.52 107.294 1894.03 108.635C1895.55 109.975 1896.74 111.566 1897.56 113.318C1898.38 115.069 1898.8 116.946 1898.8 118.841Z" fill="#1000CC" stroke="#0D00A4" stroke-width="1.11495"/>
<path d="M1829.83 303.247C1829.83 305.142 1829.41 307.019 1828.59 308.77C1827.78 310.522 1826.58 312.113 1825.07 313.454C1823.56 314.794 1821.76 315.858 1819.79 316.583C1817.81 317.309 1815.7 317.682 1813.56 317.682C1811.42 317.682 1809.31 317.309 1807.33 316.583C1805.36 315.858 1803.56 314.794 1802.05 313.454C1800.54 312.113 1799.34 310.522 1798.53 308.77C1797.71 307.019 1797.29 305.142 1797.29 303.247C1797.29 301.352 1797.71 299.475 1798.53 297.723C1799.34 295.972 1800.54 294.381 1802.05 293.04C1803.56 291.699 1805.36 290.636 1807.33 289.91C1809.31 289.185 1811.42 288.811 1813.56 288.811C1815.7 288.811 1817.81 289.185 1819.79 289.91C1821.76 290.636 1823.56 291.699 1825.07 293.04C1826.58 294.381 1827.78 295.972 1828.59 297.723C1829.41 299.475 1829.83 301.352 1829.83 303.247Z" fill="#1000CC" stroke="#0D00A4" stroke-width="1.11495"/>
<path d="M1779.26 242.23C1779.26 244.126 1778.84 246.003 1778.02 247.754C1777.2 249.505 1776 251.097 1774.49 252.437C1772.98 253.778 1771.19 254.841 1769.21 255.567C1767.24 256.292 1765.12 256.666 1762.98 256.666C1760.85 256.666 1758.73 256.292 1756.76 255.567C1754.78 254.841 1752.99 253.778 1751.48 252.437C1749.97 251.097 1748.77 249.505 1747.95 247.754C1747.13 246.003 1746.71 244.126 1746.71 242.23C1746.71 240.335 1747.13 238.458 1747.95 236.707C1748.77 234.955 1749.97 233.364 1751.48 232.023C1752.99 230.683 1754.78 229.619 1756.76 228.894C1758.73 228.168 1760.85 227.795 1762.98 227.795C1765.12 227.795 1767.24 228.168 1769.21 228.894C1771.19 229.619 1772.98 230.683 1774.49 232.023C1776 233.364 1777.2 234.955 1778.02 236.707C1778.84 238.458 1779.26 240.335 1779.26 242.23Z" fill="#1000CC" stroke="#0D00A4" stroke-width="1.11495"/>
<path d="M1731.75 574.431C1731.75 576.327 1731.33 578.204 1730.51 579.955C1729.69 581.706 1728.49 583.298 1726.98 584.638C1725.47 585.979 1723.68 587.042 1721.7 587.768C1719.73 588.493 1717.61 588.867 1715.47 588.867C1713.34 588.867 1711.22 588.493 1709.25 587.768C1707.27 587.042 1705.48 585.979 1703.97 584.638C1702.46 583.298 1701.26 581.706 1700.44 579.955C1699.62 578.204 1699.2 576.327 1699.2 574.431C1699.2 572.536 1699.62 570.659 1700.44 568.908C1701.26 567.156 1702.46 565.565 1703.97 564.224C1705.48 562.884 1707.27 561.82 1709.25 561.095C1711.22 560.369 1713.34 559.996 1715.47 559.996C1717.61 559.996 1719.73 560.369 1721.7 561.095C1723.68 561.82 1725.47 562.884 1726.98 564.224C1728.49 565.565 1729.69 567.156 1730.51 568.908C1731.33 570.659 1731.75 572.536 1731.75 574.431Z" fill="#CC0000" stroke="#A40000" stroke-width="1.11495"/>
<path d="M2113.36 411.721C2113.36 413.616 2112.94 415.493 2112.12 417.244C2111.31 418.996 2110.11 420.587 2108.6 421.928C2107.08 423.268 2105.29 424.332 2103.32 425.057C2101.34 425.783 2099.23 426.156 2097.09 426.156C2094.95 426.156 2092.83 425.783 2090.86 425.057C2088.88 424.332 2087.09 423.268 2085.58 421.928C2084.07 420.587 2082.87 418.996 2082.05 417.244C2081.24 415.493 2080.82 413.616 2080.82 411.721C2080.82 409.825 2081.24 407.948 2082.05 406.197C2082.87 404.446 2084.07 402.854 2085.58 401.514C2087.09 400.173 2088.88 399.11 2090.86 398.384C2092.83 397.659 2094.95 397.285 2097.09 397.285C2099.23 397.285 2101.34 397.659 2103.32 398.384C2105.29 399.11 2107.08 400.173 2108.6 401.514C2110.11 402.854 2111.31 404.446 2112.12 406.197C2112.94 407.948 2113.36 409.825 2113.36 411.721Z" fill="#CC0000" stroke="#A40000" stroke-width="1.11495"/>
<path d="M1981.56 521.55C1981.56 523.446 1981.14 525.323 1980.32 527.074C1979.5 528.825 1978.3 530.417 1976.79 531.757C1975.28 533.098 1973.49 534.161 1971.51 534.887C1969.54 535.612 1967.42 535.986 1965.29 535.986C1963.15 535.986 1961.03 535.612 1959.06 534.887C1957.08 534.161 1955.29 533.098 1953.78 531.757C1952.27 530.417 1951.07 528.825 1950.25 527.074C1949.43 525.323 1949.01 523.446 1949.02 521.55C1949.01 519.655 1949.43 517.778 1950.25 516.027C1951.07 514.275 1952.27 512.684 1953.78 511.343C1955.29 510.003 1957.08 508.94 1959.06 508.214C1961.03 507.488 1963.15 507.115 1965.29 507.115C1967.42 507.115 1969.54 507.488 1971.51 508.214C1973.49 508.94 1975.28 510.003 1976.79 511.343C1978.3 512.684 1979.5 514.275 1980.32 516.027C1981.14 517.778 1981.56 519.655 1981.56 521.55Z" fill="#CC0000" stroke="#A40000" stroke-width="1.11495"/>
<path d="M1964.7 318.162C1964.7 320.057 1964.28 321.934 1963.46 323.686C1962.64 325.437 1961.45 327.028 1959.94 328.369C1958.42 329.709 1956.63 330.773 1954.66 331.498C1952.68 332.224 1950.56 332.597 1948.43 332.597C1946.29 332.597 1944.17 332.224 1942.2 331.498C1940.22 330.773 1938.43 329.709 1936.92 328.369C1935.41 327.028 1934.21 325.437 1933.39 323.686C1932.58 321.934 1932.16 320.057 1932.16 318.162C1932.16 316.267 1932.58 314.39 1933.39 312.638C1934.21 310.887 1935.41 309.296 1936.92 307.955C1938.43 306.615 1940.22 305.551 1942.2 304.826C1944.17 304.1 1946.29 303.727 1948.43 303.727C1950.56 303.727 1952.68 304.1 1954.66 304.826C1956.63 305.551 1958.42 306.615 1959.94 307.955C1961.45 309.296 1962.64 310.887 1963.46 312.638C1964.28 314.39 1964.7 316.267 1964.7 318.162Z" fill="#CC0000" stroke="#A40000" stroke-width="1.11495"/>
<path d="M1814.5 372.399C1814.51 374.294 1814.09 376.171 1813.27 377.923C1812.45 379.674 1811.25 381.265 1809.74 382.606C1808.23 383.946 1806.44 385.01 1804.46 385.735C1802.49 386.461 1800.37 386.834 1798.23 386.834C1796.1 386.834 1793.98 386.461 1792.01 385.735C1790.03 385.01 1788.24 383.946 1786.73 382.606C1785.22 381.265 1784.02 379.674 1783.2 377.923C1782.38 376.171 1781.96 374.294 1781.96 372.399C1781.96 370.504 1782.38 368.627 1783.2 366.875C1784.02 365.124 1785.22 363.533 1786.73 362.192C1788.24 360.851 1790.03 359.788 1792.01 359.063C1793.98 358.337 1796.1 357.964 1798.23 357.964C1800.37 357.964 1802.49 358.337 1804.46 359.063C1806.44 359.788 1808.23 360.851 1809.74 362.192C1811.25 363.533 1812.45 365.124 1813.27 366.875C1814.09 368.627 1814.51 370.504 1814.5 372.399Z" fill="#CC0000" stroke="#A40000" stroke-width="1.11495"/>
<path d="M1947.84 193.417C1947.84 195.312 1947.42 197.189 1946.6 198.941C1945.79 200.692 1944.59 202.283 1943.08 203.624C1941.57 204.965 1939.77 206.028 1937.8 206.754C1935.82 207.479 1933.71 207.853 1931.57 207.853C1929.43 207.853 1927.32 207.479 1925.34 206.754C1923.37 206.028 1921.57 204.965 1920.06 203.624C1918.55 202.283 1917.35 200.692 1916.53 198.941C1915.72 197.189 1915.3 195.312 1915.3 193.417C1915.3 191.522 1915.72 189.645 1916.53 187.894C1917.35 186.142 1918.55 184.551 1920.06 183.21C1921.57 181.87 1923.37 180.806 1925.34 180.081C1927.32 179.355 1929.43 178.982 1931.57 178.982C1933.71 178.982 1935.82 179.355 1937.8 180.081C1939.77 180.806 1941.57 181.87 1943.08 183.21C1944.59 184.551 1945.79 186.142 1946.6 187.894C1947.42 189.645 1947.84 191.522 1947.84 193.417Z" fill="#CC0000" stroke="#A40000" stroke-width="1.11495"/>
<path d="M1825.23 193.417C1825.23 195.312 1824.81 197.189 1824 198.941C1823.18 200.692 1821.98 202.283 1820.47 203.624C1818.96 204.965 1817.17 206.028 1815.19 206.754C1813.22 207.479 1811.1 207.853 1808.96 207.853C1806.82 207.853 1804.71 207.479 1802.73 206.754C1800.76 206.028 1798.97 204.965 1797.45 203.624C1795.94 202.283 1794.74 200.692 1793.93 198.941C1793.11 197.189 1792.69 195.312 1792.69 193.417C1792.69 191.522 1793.11 189.645 1793.93 187.894C1794.74 186.142 1795.94 184.551 1797.45 183.21C1798.97 181.87 1800.76 180.806 1802.73 180.081C1804.71 179.355 1806.82 178.982 1808.96 178.982C1811.1 178.982 1813.22 179.355 1815.19 180.081C1817.17 180.806 1818.96 181.87 1820.47 183.21C1821.98 184.551 1823.18 186.142 1824 187.894C1824.81 189.645 1825.23 191.522 1825.23 193.417Z" fill="#CC0000" stroke="#A40000" stroke-width="1.11495"/>
<defs>
<linearGradient id="paint0_linear_8_150" x1="1861.25" y1="21.9237" x2="1869.17" y2="39.3111" gradientUnits="userSpaceOnUse">
<stop stop-color="white"/>
<stop offset="1" stop-color="white" stop-opacity="0"/>
</linearGradient>
<linearGradient id="paint1_linear_8_150" x1="1852.95" y1="25.7783" x2="1863.53" y2="40.1616" gradientUnits="userSpaceOnUse">
<stop stop-color="white"/>
<stop offset="1" stop-color="white" stop-opacity="0"/>
</linearGradient>
<linearGradient id="paint2_linear_8_150" x1="1725.69" y1="707.885" x2="1864.33" y2="715.106" gradientUnits="userSpaceOnUse">
<stop/>
<stop offset="1" stop-opacity="0"/>
</linearGradient>
<linearGradient id="paint3_linear_8_150" x1="1868.94" y1="318.661" x2="1868.94" y2="185.162" gradientUnits="userSpaceOnUse">
<stop/>
<stop offset="1" stop-opacity="0"/>
</linearGradient>
<linearGradient id="paint4_linear_8_150" x1="1867.1" y1="555.465" x2="1867.1" y2="324.203" gradientUnits="userSpaceOnUse">
<stop/>
<stop offset="1" stop-opacity="0"/>
</linearGradient>
<linearGradient id="paint5_linear_8_150" x1="1868.4" y1="831.994" x2="1868.4" y2="471.041" gradientUnits="userSpaceOnUse">
<stop/>
<stop offset="1" stop-opacity="0"/>
</linearGradient>
</defs>
</svg>
