<svg width="2722" height="440" viewBox="0 0 2722 440" fill="none" xmlns="http://www.w3.org/2000/svg">
    <path d="M2332.57 431.642C2247.22 435.019 1832.51 452.826 1615.42 423.045C1461.88 402.168 1512.44 388.966 1582.49 372.386C1706.8 342.912 1506.88 343.833 1433.12 330.017C1218.35 289.797 1376.06 244.972 1746.23 256.025C1884.93 260.016 2004.15 225.629 2137.28 225.015C2340.46 223.787 2229.13 297.166 2470.81 304.534C2593.27 308.219 2765.36 320.499 2712.02 371.772C2660.07 422.124 2397.51 429.186 2332.57 431.642Z" fill="#F4FBF9"/>
    <path d="M1660.57 216.359C1575.22 212.981 1160.51 195.174 943.422 224.955C789.88 245.833 840.442 259.035 910.487 275.614C1034.8 305.088 834.875 304.167 761.119 317.983C546.346 358.203 704.063 403.028 1074.23 391.976C1212.93 387.984 1332.15 422.371 1465.28 422.985C1668.46 424.213 1557.13 350.835 1798.81 343.466C1921.27 339.782 2093.36 327.501 2040.02 276.228C1988.07 225.876 1725.51 218.815 1660.57 216.359Z" fill="#EEF2F1"/>
    <path d="M996.571 430.437C911.218 434.301 496.515 454.676 279.422 420.6C125.88 396.713 176.442 381.607 246.487 362.637C370.805 328.913 170.875 329.967 97.1195 314.159C-117.654 268.14 40.063 216.852 410.234 229.498C548.932 234.065 668.148 194.72 801.28 194.018C1004.46 192.612 893.127 276.571 1134.81 285.002C1257.27 289.218 1429.36 303.269 1376.02 361.935C1324.07 419.547 1061.51 427.626 996.571 430.437Z" fill="#F4FBF9"/>
    <path opacity="0.1" d="M550.662 259.422C555.486 259.422 559.396 258.798 559.396 258.027C559.396 257.257 555.486 256.632 550.662 256.632C545.839 256.632 541.928 257.257 541.928 258.027C541.928 258.798 545.839 259.422 550.662 259.422Z" fill="#6E2382"/>
    <path d="M544.796 251.544C544.796 251.544 549.778 251.399 551.28 250.389C552.781 249.378 558.943 248.172 559.316 249.792C559.688 251.413 566.802 257.851 561.178 257.894C555.553 257.937 548.109 257.066 546.61 256.204C545.112 255.341 544.796 251.544 544.796 251.544Z" fill="#757575"/>
    <path opacity="0.2" d="M561.278 257.33C555.654 257.372 548.209 256.502 546.711 255.639C545.569 254.982 545.115 252.625 544.962 251.537C544.857 251.542 544.796 251.543 544.796 251.543C544.796 251.543 545.112 255.34 546.61 256.203C548.109 257.066 555.553 257.937 561.178 257.894C562.801 257.881 563.362 257.335 563.332 256.527C563.106 257.015 562.487 257.32 561.278 257.33Z" fill="#333333"/>
    <path opacity="0.1" d="M471.85 275.391C483.365 275.391 492.7 273.9 492.7 272.06C492.7 270.221 483.365 268.73 471.85 268.73C460.335 268.73 451 270.221 451 272.06C451 273.9 460.335 275.391 471.85 275.391Z" fill="#6E2382"/>
    <path d="M457.847 256.583C457.847 256.583 469.741 256.237 473.325 253.825C476.909 251.413 491.62 248.533 492.509 252.401C493.398 256.269 510.382 271.64 496.955 271.742C483.527 271.845 465.755 269.766 462.178 267.707C458.6 265.647 457.847 256.583 457.847 256.583Z" fill="#757575"/>
    <path opacity="0.2" d="M497.195 270.396C483.767 270.499 465.995 268.42 462.418 266.36C459.693 264.792 458.607 259.165 458.244 256.568C457.993 256.579 457.847 256.583 457.847 256.583C457.847 256.583 458.6 265.648 462.178 267.707C465.755 269.766 483.527 271.845 496.955 271.743C500.831 271.713 502.17 270.41 502.096 268.48C501.558 269.646 500.079 270.374 497.195 270.396Z" fill="#333333"/>
    <path d="M1323.66 169.565H1311.46C1309.33 169.565 1307.58 171.227 1307.48 173.354C1307.16 180.561 1306.55 196.107 1307 202.668C1307.58 211.351 1306.31 215.692 1307.72 215.692C1313.82 215.692 1327.74 219.393 1328.33 215.407C1328.92 211.421 1328.36 206.899 1328.57 196.97C1328.87 183.191 1327.8 175.667 1327.04 172.141C1326.7 170.558 1325.28 169.565 1323.66 169.565Z" fill="#795548"/>
    <path d="M1313.87 108.079C1312.39 107.184 1310.51 107.381 1309.22 108.543C1299.67 117.137 1261.47 151.561 1255.51 157.763C1248.68 164.862 1245.12 172.133 1243.27 174.802C1241.42 177.472 1238.05 183.424 1235.23 187.267C1221.26 206.277 1288.78 194.337 1345.34 192.677C1363.32 192.149 1380.2 191.645 1393 194.824C1411.66 199.458 1406.96 185.009 1390.95 168.977C1384.2 162.226 1378.73 155.497 1370.06 147.971C1348.9 129.605 1322.07 113.009 1313.87 108.079Z" fill="#14555A"/>
    <path d="M1315.2 5.89528C1313.64 3.25875 1309.83 3.25951 1308.3 5.907C1301.08 18.3603 1284.8 46.5103 1282.57 50.7044C1279.7 56.1159 1279.86 54.4125 1278.55 57.0278C1268.8 76.4848 1323.89 64.2399 1341.2 59.9755C1343.77 59.3437 1344.96 56.4307 1343.62 54.1543L1315.2 5.89528Z" fill="#008484"/>
    <path d="M1320.66 74.8637C1319.14 73.6563 1317 73.752 1315.57 75.0693C1306.81 83.1469 1277.4 110.324 1272.65 115.375C1267.06 121.323 1263.95 127.569 1262.39 129.838C1260.84 132.107 1258.08 137.332 1255.58 140.459C1233.59 167.996 1335.67 140.208 1375.36 154.193C1389.32 159.113 1386.53 146.172 1375.21 131.329C1370.45 125.079 1366.65 118.905 1360.46 111.885C1345.97 95.4674 1327.43 80.2483 1320.66 74.8637Z" fill="#007272"/>
    <path d="M1308.81 40.7724C1310.35 38.9167 1313.14 38.8783 1314.77 40.6657C1324.72 51.5966 1355.78 85.7343 1359.79 90.525C1364.59 95.3509 1364.15 94.3286 1366.35 97.1028C1385.74 121.53 1299.76 98.9653 1267.34 112.698C1240.74 123.966 1295.36 56.9687 1308.81 40.7724Z" fill="#008484"/>
    <path d="M1296.3 21.6323C1299.54 17.0246 1306.01 2.24809 1311.53 1.77148C1317.06 1.29486 1337.75 34.2518 1332.48 33.5488C1327.72 32.9131 1327.15 24.81 1314.58 26.24C1302.01 27.67 1298.58 28.7822 1294.39 28.7822C1290.2 28.7822 1294.99 23.4967 1296.3 21.6323Z" fill="white" stroke="white"/>
    <path d="M1359.45 90.0545C1356.7 87.1149 1351.13 78.8776 1351.13 81.0095C1351.13 82.1401 1352.68 86.7192 1353.14 89.2066C1353.71 92.3158 1351.13 94.5771 1343.96 96.273C1336.78 97.969 1327.6 97.969 1321.29 104.187C1314.98 110.406 1324.73 107.862 1327.6 107.862C1330.47 107.862 1340.8 110.689 1351.13 110.689C1361.46 110.689 1359.16 108.427 1364.04 107.862C1371.45 107.003 1369.21 101.078 1367.77 98.817C1366.47 96.769 1362.89 93.7291 1359.45 90.0545Z" fill="white"/>
    <path d="M1377.82 134.342C1374.57 129.644 1368.88 120.312 1368.33 122.389C1368.04 123.49 1362.03 128.818 1360.65 131.067C1357.41 136.335 1352.13 143.296 1339.29 141.742C1326.46 140.188 1297.06 144.798 1285.24 149.996C1282.9 151.028 1281.82 151.763 1281.68 152.273C1281.01 154.715 1301.7 151.988 1305.94 151.988C1312.84 151.988 1333.8 146.48 1351.65 151.097C1369.5 155.713 1366.77 150.945 1374.94 153.98C1388.75 159.103 1385.53 149.419 1384.14 146.296C1382.13 141.742 1381.56 139.75 1377.82 134.342Z" fill="white"/>
    <path d="M1237.54 178.793C1240.5 173.88 1248.93 163.497 1249.62 165.533C1249.98 166.613 1253.06 172.196 1254.6 174.347C1258.2 179.385 1263.96 185.974 1276.77 183.544C1289.57 181.114 1319.44 183.704 1331.66 188.085C1334.09 188.955 1337.25 192.239 1337.42 192.738C1338.26 195.131 1316.15 195.945 1311.89 196.235C1304.95 196.707 1287.03 194.144 1269.38 199.975C1251.73 205.807 1250.09 198.259 1242.65 200.358C1235.2 202.458 1230.77 194.373 1231.96 191.161C1233.69 186.476 1234.13 184.448 1237.54 178.793Z" fill="white"/>
    <path d="M411.544 296.929C411.544 296.929 392.197 52.7852 389.827 38.0517C389.827 38.0517 389.448 34.753 393.938 34.1395C398.796 33.4758 399.08 35.2961 399.234 37.1566C399.412 39.2786 421.685 296.929 421.685 296.929C421.685 296.929 420.903 298.518 417.491 298.518C414.079 298.518 411.626 298.055 411.544 296.929Z" fill="#00343E"/>
    <path d="M386.035 48.4908L485.92 36.6638L515.822 48.4908L493.063 68.102L387.729 75.8961L386.035 48.4908Z" fill="#007272"/>
    <path d="M386.604 88.8898L487.128 85.4L516 97.5489L491.737 112.876L386.106 112.534L386.604 88.8898Z" fill="#007272"/>
    <path d="M386 141.307L485.114 120.61L515.716 137.556L494.154 167.747L389.353 182.52L386 141.307Z" fill="#007272"/>
</svg>
