<svg width="96" height="99" viewBox="0 0 96 99" fill="none" xmlns="http://www.w3.org/2000/svg">
<path opacity="0.5" d="M58.8981 4.40645C58.3714 4.17652 57.9476 3.76105 57.7072 3.23904C57.4669 2.71704 57.4267 2.12491 57.5945 1.57524C57.6215 1.49137 57.6389 1.40465 57.6461 1.31681V1.31681C57.6847 1.05619 57.6325 0.79025 57.4983 0.563535C57.3642 0.336821 57.1561 0.163116 56.9091 0.0715713C56.662 -0.0199739 56.391 -0.0238114 56.1415 0.0607054C55.892 0.145222 55.6791 0.312966 55.5385 0.535792V0.535792C55.4858 0.607011 55.4415 0.684091 55.4064 0.765501C55.1765 1.29219 54.761 1.716 54.239 1.95635C53.717 2.19671 53.1249 2.23684 52.5752 2.06912C52.4914 2.04203 52.4046 2.02469 52.3168 2.01743V2.01743C52.0562 1.97884 51.7902 2.03101 51.5635 2.16521C51.3368 2.2994 51.1631 2.50747 51.0716 2.75451C50.98 3.00155 50.9762 3.27254 51.0607 3.52207C51.1452 3.7716 51.313 3.9845 51.5358 4.12505C51.607 4.1778 51.6841 4.22211 51.7655 4.25713C52.2975 4.48855 52.7248 4.90913 52.9645 5.43745C53.2043 5.96577 53.2395 6.56426 53.0634 7.11706C53.0363 7.20093 53.0189 7.28765 53.0117 7.37549C52.9731 7.63611 53.0253 7.90205 53.1595 8.12877C53.2937 8.35548 53.5017 8.52917 53.7488 8.62071C53.9958 8.71226 54.2668 8.71609 54.5163 8.63158C54.7658 8.54706 54.9787 8.37933 55.1193 8.15651V8.15651C55.172 8.08529 55.2164 8.00821 55.2514 7.9268C55.4813 7.40011 55.8968 6.9763 56.4188 6.73595C56.9408 6.49559 57.5329 6.45546 58.0826 6.62319C58.1665 6.65027 58.2532 6.66761 58.341 6.67487C58.6016 6.71346 58.8676 6.66127 59.0943 6.52707C59.321 6.39288 59.4947 6.18483 59.5863 5.93779C59.6778 5.69075 59.6816 5.41975 59.5971 5.17022C59.5126 4.92069 59.3449 4.7078 59.122 4.56725V4.56725C59.0541 4.50485 58.9789 4.45086 58.8981 4.40645V4.40645Z" fill="#F8F8F8"/>
<path opacity="0.5" d="M90.8981 85.4064C90.3714 85.1765 89.9476 84.7611 89.7072 84.239C89.4669 83.717 89.4267 83.1249 89.5945 82.5752C89.6215 82.4914 89.6389 82.4046 89.6461 82.3168V82.3168C89.6847 82.0562 89.6325 81.7902 89.4983 81.5635C89.3642 81.3368 89.1561 81.1631 88.9091 81.0716C88.662 80.98 88.391 80.9762 88.1415 81.0607C87.892 81.1452 87.6791 81.313 87.5385 81.5358V81.5358C87.4858 81.607 87.4415 81.6841 87.4064 81.7655C87.1765 82.2922 86.761 82.716 86.239 82.9564C85.717 83.1967 85.1249 83.2368 84.5752 83.0691C84.4914 83.042 84.4046 83.0247 84.3168 83.0174V83.0174C84.0562 82.9788 83.7902 83.031 83.5635 83.1652C83.3368 83.2994 83.1631 83.5075 83.0716 83.7545C82.98 84.0015 82.9762 84.2725 83.0607 84.5221C83.1452 84.7716 83.313 84.9845 83.5358 85.1251C83.607 85.1778 83.6841 85.2221 83.7655 85.2571C84.2975 85.4886 84.7248 85.9091 84.9645 86.4374C85.2043 86.9658 85.2395 87.5643 85.0634 88.1171C85.0363 88.2009 85.0189 88.2877 85.0117 88.3755C84.9731 88.6361 85.0253 88.9021 85.1595 89.1288C85.2937 89.3555 85.5017 89.5292 85.7488 89.6207C85.9958 89.7123 86.2668 89.7161 86.5163 89.6316C86.7658 89.5471 86.9787 89.3793 87.1193 89.1565V89.1565C87.172 89.0853 87.2164 89.0082 87.2514 88.9268C87.4813 88.4001 87.8968 87.9763 88.4188 87.7359C88.9408 87.4956 89.5329 87.4555 90.0826 87.6232C90.1665 87.6503 90.2532 87.6676 90.341 87.6749C90.6016 87.7135 90.8676 87.6613 91.0943 87.5271C91.321 87.3929 91.4947 87.1848 91.5863 86.9378C91.6778 86.6908 91.6816 86.4197 91.5971 86.1702C91.5126 85.9207 91.3449 85.7078 91.122 85.5672V85.5672C91.0541 85.5048 90.9789 85.4509 90.8981 85.4064V85.4064Z" fill="#F8F8F8"/>
<path opacity="0.5" d="M27.8981 94.4064C27.3714 94.1765 26.9476 93.7611 26.7072 93.239C26.4669 92.717 26.4267 92.1249 26.5945 91.5752C26.6215 91.4914 26.6389 91.4046 26.6461 91.3168V91.3168C26.6847 91.0562 26.6325 90.7902 26.4983 90.5635C26.3642 90.3368 26.1561 90.1631 25.9091 90.0716C25.662 89.98 25.391 89.9762 25.1415 90.0607C24.892 90.1452 24.6791 90.313 24.5385 90.5358V90.5358C24.4858 90.607 24.4415 90.6841 24.4064 90.7655C24.1765 91.2922 23.761 91.716 23.239 91.9564C22.717 92.1967 22.1249 92.2368 21.5752 92.0691C21.4914 92.042 21.4046 92.0247 21.3168 92.0174V92.0174C21.0562 91.9788 20.7902 92.031 20.5635 92.1652C20.3368 92.2994 20.1631 92.5075 20.0716 92.7545C19.98 93.0015 19.9762 93.2725 20.0607 93.5221C20.1452 93.7716 20.313 93.9845 20.5358 94.1251C20.607 94.1778 20.6841 94.2221 20.7655 94.2571C21.2975 94.4886 21.7248 94.9091 21.9645 95.4374C22.2043 95.9658 22.2395 96.5643 22.0634 97.1171C22.0363 97.2009 22.0189 97.2877 22.0117 97.3755C21.9731 97.6361 22.0253 97.9021 22.1595 98.1288C22.2937 98.3555 22.5017 98.5292 22.7488 98.6207C22.9958 98.7123 23.2668 98.7161 23.5163 98.6316C23.7658 98.5471 23.9787 98.3793 24.1193 98.1565V98.1565C24.172 98.0853 24.2164 98.0082 24.2514 97.9268C24.4813 97.4001 24.8968 96.9763 25.4188 96.7359C25.9408 96.4956 26.5329 96.4555 27.0826 96.6232C27.1665 96.6503 27.2532 96.6676 27.341 96.6749C27.6016 96.7135 27.8676 96.6613 28.0943 96.5271C28.321 96.3929 28.4947 96.1848 28.5863 95.9378C28.6778 95.6908 28.6816 95.4197 28.5971 95.1702C28.5126 94.9207 28.3449 94.7078 28.122 94.5672V94.5672C28.0541 94.5048 27.9789 94.4509 27.8981 94.4064V94.4064Z" fill="#F8F8F8"/>
<path opacity="0.5" d="M22.641 17.4733C22.1211 17.7183 21.5294 17.7637 20.9782 17.6009C20.4271 17.438 19.955 17.0783 19.6518 16.5902C19.6065 16.5146 19.5526 16.4444 19.4913 16.3811V16.3811C19.3206 16.1805 19.0861 16.0446 18.8271 15.9963C18.5681 15.948 18.3004 15.9902 18.0688 16.1159C17.8372 16.2415 17.6559 16.443 17.5552 16.6864C17.4545 16.9299 17.4406 17.2005 17.5157 17.453V17.453C17.5346 17.5396 17.5634 17.6237 17.6016 17.7037C17.8466 18.2236 17.892 18.8153 17.7292 19.3665C17.5664 19.9176 17.2067 20.3896 16.7185 20.6929C16.6429 20.7382 16.5727 20.792 16.5094 20.8534V20.8534C16.3088 21.0241 16.1729 21.2586 16.1246 21.5176C16.0764 21.7766 16.1186 22.0443 16.2442 22.2759C16.3699 22.5074 16.5713 22.6888 16.8147 22.7895C17.0582 22.8902 17.3289 22.9041 17.5814 22.829C17.668 22.8101 17.7521 22.7813 17.832 22.743C18.3565 22.495 18.9544 22.4504 19.5099 22.6178C20.0654 22.7853 20.539 23.1529 20.8391 23.6494C20.8843 23.725 20.9382 23.7952 20.9995 23.8585C21.1702 24.0591 21.4048 24.195 21.6638 24.2433C21.9228 24.2915 22.1905 24.2493 22.422 24.1237C22.6536 23.998 22.8349 23.7966 22.9356 23.5532C23.0363 23.3097 23.0503 23.039 22.9751 22.7865V22.7865C22.9563 22.6999 22.9274 22.6158 22.8892 22.5359C22.6442 22.016 22.5988 21.4243 22.7616 20.8731C22.9245 20.322 23.2842 19.8499 23.7723 19.5467C23.848 19.5014 23.9181 19.4476 23.9814 19.3862C24.1821 19.2155 24.3179 18.981 24.3662 18.722C24.4145 18.463 24.3723 18.1953 24.2466 17.9637C24.121 17.7321 23.9195 17.5508 23.6761 17.4501C23.4326 17.3494 23.162 17.3355 22.9095 17.4106V17.4106C22.8178 17.4207 22.7276 17.4417 22.641 17.4733V17.4733Z" fill="#F8F8F8"/>
<path opacity="0.5" d="M8.51694 60.4736C7.99709 60.7185 7.40535 60.7639 6.85421 60.6011C6.30308 60.4383 5.83101 60.0786 5.52777 59.5904C5.48248 59.5148 5.42862 59.4447 5.36728 59.3814V59.3814C5.19656 59.1807 4.96205 59.0449 4.70306 58.9966C4.44407 58.9483 4.17634 58.9905 3.94478 59.1161C3.71321 59.2418 3.53189 59.4432 3.43119 59.6866C3.33049 59.9301 3.31655 60.2008 3.3917 60.4533V60.4533C3.41057 60.5399 3.4394 60.624 3.47762 60.7039C3.72261 61.2238 3.76799 61.8156 3.60516 62.3667C3.44233 62.9178 3.08265 63.3899 2.59448 63.6931C2.51887 63.7384 2.44871 63.7923 2.38541 63.8536V63.8536C2.18477 64.0243 2.0489 64.2588 2.00062 64.5178C1.95233 64.7768 1.99456 65.0446 2.1202 65.2761C2.24585 65.5077 2.44727 65.689 2.69072 65.7897C2.93417 65.8904 3.20485 65.9043 3.45736 65.8292C3.54395 65.8103 3.62805 65.7815 3.70801 65.7433C4.2325 65.4953 4.83036 65.4506 5.38586 65.6181C5.94135 65.7855 6.41497 66.1531 6.71503 66.6497C6.76032 66.7253 6.81416 66.7954 6.87549 66.8587C7.04622 67.0594 7.28075 67.1952 7.53974 67.2435C7.79873 67.2918 8.06645 67.2496 8.29801 67.1239C8.52957 66.9983 8.7109 66.7969 8.8116 66.5534C8.91229 66.31 8.92625 66.0393 8.8511 65.7868V65.7868C8.83223 65.7002 8.8034 65.6161 8.76518 65.5361C8.52019 65.0163 8.47479 64.4245 8.63762 63.8734C8.80045 63.3223 9.16015 62.8502 9.64832 62.5469C9.72393 62.5016 9.79409 62.4478 9.85739 62.3865C10.058 62.2157 10.1939 61.9812 10.2422 61.7222C10.2905 61.4632 10.2482 61.1955 10.1226 60.9639C9.99695 60.7324 9.79552 60.551 9.55207 60.4503C9.30862 60.3497 9.03795 60.3357 8.78544 60.4109V60.4109C8.69375 60.4209 8.60359 60.442 8.51694 60.4736V60.4736Z" fill="#F8F8F8"/>
<path opacity="0.5" d="M70.5169 48.4733C69.9971 48.7183 69.4053 48.7637 68.8542 48.6009C68.3031 48.438 67.831 48.0783 67.5278 47.5902C67.4825 47.5146 67.4286 47.4444 67.3673 47.3811V47.3811C67.1966 47.1805 66.962 47.0446 66.7031 46.9963C66.4441 46.948 66.1763 46.9902 65.9448 47.1159C65.7132 47.2415 65.5319 47.443 65.4312 47.6864C65.3305 47.9299 65.3166 48.2005 65.3917 48.453V48.453C65.4106 48.5396 65.4394 48.6237 65.4776 48.7037C65.7226 49.2236 65.768 49.8153 65.6052 50.3665C65.4423 50.9176 65.0826 51.3896 64.5945 51.6929C64.5189 51.7382 64.4487 51.792 64.3854 51.8534V51.8534C64.1848 52.0241 64.0489 52.2586 64.0006 52.5176C63.9523 52.7766 63.9946 53.0443 64.1202 53.2759C64.2458 53.5074 64.4473 53.6888 64.6907 53.7895C64.9342 53.8902 65.2049 53.9041 65.4574 53.829C65.544 53.8101 65.628 53.7813 65.708 53.743C66.2325 53.495 66.8304 53.4504 67.3859 53.6178C67.9413 53.7853 68.415 54.1529 68.715 54.6494C68.7603 54.725 68.8142 54.7952 68.8755 54.8585C69.0462 55.0591 69.2808 55.195 69.5397 55.2433C69.7987 55.2915 70.0664 55.2493 70.298 55.1237C70.5296 54.998 70.7109 54.7966 70.8116 54.5532C70.9123 54.3097 70.9262 54.039 70.8511 53.7865V53.7865C70.8322 53.6999 70.8034 53.6158 70.7652 53.5359C70.5202 53.016 70.4748 52.4243 70.6376 51.8731C70.8004 51.322 71.1602 50.8499 71.6483 50.5467C71.7239 50.5014 71.7941 50.4476 71.8574 50.3862C72.058 50.2155 72.1939 49.981 72.2422 49.722C72.2905 49.463 72.2482 49.1953 72.1226 48.9637C71.997 48.7321 71.7955 48.5508 71.5521 48.4501C71.3086 48.3494 71.0379 48.3355 70.7854 48.4106V48.4106C70.6937 48.4207 70.6036 48.4417 70.5169 48.4733V48.4733Z" fill="#F8F8F8"/>
</svg>
